<?xml version="1.0" encoding="UTF-8" standalone="no"?>
<svg
   xmlns:dc="http://purl.org/dc/elements/1.1/"
   xmlns:cc="http://creativecommons.org/ns#"
   xmlns:rdf="http://www.w3.org/1999/02/22-rdf-syntax-ns#"
   xmlns:svg="http://www.w3.org/2000/svg"
   xmlns="http://www.w3.org/2000/svg"
   version="1.1"
   id="svg6296"
   viewBox="0 0 146 91.999998"
   height="92"
   width="146">
  <defs
     id="defs6298" />
  <metadata
     id="metadata6301">
    <rdf:RDF>
      <cc:Work
         rdf:about="">
        <dc:format>image/svg+xml</dc:format>
        <dc:type
           rdf:resource="http://purl.org/dc/dcmitype/StillImage" />
        <dc:title></dc:title>
      </cc:Work>
    </rdf:RDF>
  </metadata>
  <g
     transform="translate(30,-990.36221)"
     id="layer1">
    <g
       transform="matrix(0.10666667,0,0,0.10666667,8.0428572,1010.9992)"
       id="layer1-9">
      <circle
         r="140"
         cy="237.77817"
         cx="74.598213"
         id="path4145"
         style="fill:#ffffff;fill-opacity:1" />
      <path
         id="path5582-0"
         d="m 74.598222,87.778175 c -82.84603,0 -150.000006,67.174705 -150.000006,150.013355 0,82.83865 67.153976,149.98664 150.000006,149.98664 82.846118,0 149.999988,-67.14799 149.999988,-149.98664 0,-82.83865 -67.15387,-150.013355 -149.999988,-150.013355 z m -0.0263,25.344645 c 46.685518,0 87.385538,25.64875 108.751348,63.62827 l -14.8612,0 C 148.41644,145.90559 113.6529,125.5016 74.118392,125.5016 c -62.1005,0 -112.433307,50.32839 -112.433307,112.42332 0,62.09494 50.332807,112.42324 112.433307,112.42324 9.48124,0 18.68551,-1.20252 27.481318,-3.41482 6.90928,2.54405 15.35052,3.97427 24.9733,4.13522 -15.83041,7.28129 -33.433228,11.36505 -52.001088,11.36505 -68.85234,0 -124.653156,-55.82259 -124.653156,-124.6688 0,-68.84611 55.800816,-124.64199 124.653156,-124.64199 z M 130.255,178.67195 c 14.86762,-0.0563 21.9669,4.98125 35.11205,6.16267 8.85807,0.69369 10.72575,0.64026 13.9808,0.47996 l 0,-0.10686 c 2.31853,4.04635 2.69475,12.11198 2.69475,12.11198 l -12.27323,0.0844 c 13.06022,28.55877 -4.2038,43.20786 -13.34044,50.04885 -12.2949,9.2058 -40.26154,6.2161 -40.26154,6.2161 0,0 -8.85805,4.48198 -7.79082,10.24456 1.06724,5.76258 4.48239,7.25654 33.29774,7.89689 28.81539,0.64025 38.42054,7.89679 40.34153,10.45791 1.92103,2.56121 9.9915,11.82448 3.54862,28.01244 -5.94623,14.93998 -29.16225,33.02809 -56.48349,32.81464 -27.32126,-0.21373 -45.357548,-10.56468 -46.318048,-27.42552 -0.84985,-14.9173 21.558158,-23.157 21.558158,-23.157 -6.403418,-3.84163 -16.648878,-9.17741 -16.648878,-20.48912 0,-11.31161 17.956288,-22.40988 17.956288,-22.40988 -6.854388,-3.27289 -21.439578,-16.76025 -19.023528,-36.41618 2.41597,-19.65603 14.461048,-25.42471 14.461048,-25.42471 0,0 8.53789,-8.56377 29.18889,-9.09734 z m -49.359668,4.9355 c 5.91591,-0.14342 10.88581,1.20055 10.88581,1.20055 -9.58403,6.79121 -13.20709,21.36944 -13.20709,21.36944 -4.75432,-3.69745 -11.23261,-2.64117 -11.23261,-2.64117 -10.41418,2.71654 -13.46007,19.38624 -13.23373,21.8764 l 0,28.73275 c -0.2264,14.56351 1.01388,21.82305 1.01388,21.82305 0.60375,8.6023 16.0619,9.36414 16.0619,9.36414 l 0,6.66972 -61.44615,0 0.0525,-6.37622 c 18.18706,-3.69745 16.26774,-7.31382 17.02241,-9.57758 0.75469,-2.26377 0.82716,-13.01912 0.82716,-13.01912 0,0 0.2264,-33.42274 0,-45.64693 -0.22631,-12.22429 -12.67347,-16.22059 -12.67347,-16.22059 l -5.33618,-0.61401 0.96051,-8.11025 44.15693,-8.27035 c 0,0 0.228,-0.47059 0.90713,2.32104 0.67912,2.792 -1.14733,13.63276 -1.14733,13.63276 2.71677,-4.52754 14.65196,-14.93314 22.19851,-16.14054 1.41499,-0.22591 2.82374,-0.34028 4.18895,-0.37309 z m 48.612618,6.2161 c -12.79055,0.53152 -16.9958,12.56757 -16.9958,27.02535 0,14.92414 7.36571,27.02534 18.27647,27.02534 14.53303,0 18.24971,-12.1012 18.24971,-27.02534 0,-14.92414 -7.34058,-26.84611 -18.24971,-27.02535 -0.43078,-0.005 -0.86812,-0.0188 -1.28067,0 z m 52.37453,15.95371 13.23375,0 c 2.70257,10.2065 4.13559,20.93082 4.13559,31.98755 0,15.16234 -2.72573,29.69745 -7.68412,43.13916 -1.31841,-2.65579 -2.77918,-4.44317 -3.46852,-5.3623 -0.75216,-1.00285 -2.71017,-2.71861 -6.51014,-4.48207 3.22692,-10.4761 4.96266,-21.59911 4.96266,-33.13468 0,-11.17259 -1.63491,-21.9616 -4.66922,-32.14766 z m -47.78542,88.386 -15.42159,0.0562 c 0,0 -12.29992,2.02754 -14.96802,12.48555 -2.66808,10.458 4.25537,16.39813 11.89969,20.08893 5.84361,2.82134 22.19848,6.42955 33.29778,1.73412 11.09926,-4.69542 14.99467,-11.25837 15.52829,-14.03293 0.53363,-2.77457 3.46852,-11.47173 -5.38955,-15.5269 -8.85806,-4.05508 -24.9466,-4.80211 -24.9466,-4.80211 z"
         style="fill:#4d6c8b;fill-opacity:1;stroke:none" />
    </g>
    <g
       style="fill:#d9d9d9;fill-opacity:1"
       transform="matrix(0.046875,0,0,0.046875,62,1028.3622)"
       id="g4674">
      <path
         style="clip-rule:evenodd;fill:#d9d9d9;fill-opacity:1;fill-rule:evenodd"
         d="m 296.133,354.174 c 49.885,-5.891 102.942,-24.029 102.942,-110.192 0,-24.49 -8.624,-44.448 -22.67,-59.869 2.266,-5.89 9.515,-28.114 -2.734,-58.947 0,0 -18.139,-5.898 -60.759,22.669 -18.139,-4.983 -38.09,-8.163 -56.682,-8.163 -19.053,0 -39.011,3.18 -56.697,8.163 -43.082,-28.567 -61.22,-22.669 -61.22,-22.669 -12.241,30.833 -4.983,53.057 -2.718,58.947 -14.061,15.42 -22.677,35.379 -22.677,59.869 0,86.163 53.057,104.301 102.942,110.192 -6.344,5.452 -12.241,15.873 -14.507,30.387 -12.702,5.438 -45.808,15.873 -65.758,-18.592 0,0 -11.795,-21.31 -34.012,-22.669 0,0 -22.224,-0.453 -1.813,13.592 0,0 14.96,6.812 24.943,32.653 0,0 13.6,43.089 76.179,29.48 l 0,38.543 c 0,5.906 -4.53,12.702 -15.865,10.89 C 96.139,438.977 32.2,354.626 32.2,255.77 32.2,131.963 132.416,31.748 256.23,31.748 c 123.347,0 224.023,100.216 223.57,224.022 0,98.856 -63.946,182.754 -152.828,212.688 -11.342,2.266 -15.873,-4.53 -15.873,-10.89 l 0,-62.118 c 0.001,-20.873 -6.811,-34.465 -14.966,-41.276 l 0,0 z M 512,256.23 C 512,114.73 397.263,0 256.23,0 114.73,0 0,114.73 0,256.23 0,397.263 114.73,512 256.23,512 397.263,512 512,397.263 512,256.23 l 0,0 z"
         id="path4676" />
    </g>
  </g>
</svg>
