<?xml version="1.0" encoding="UTF-8" standalone="no"?>
<svg
   xmlns:dc="http://purl.org/dc/elements/1.1/"
   xmlns:cc="http://creativecommons.org/ns#"
   xmlns:rdf="http://www.w3.org/1999/02/22-rdf-syntax-ns#"
   xmlns:svg="http://www.w3.org/2000/svg"
   xmlns="http://www.w3.org/2000/svg"
   version="1.1"
   id="svg5023"
   viewBox="0 0 1680 1050"
   height="1050"
   width="1680">
  <defs
     id="defs5025" />
  <metadata
     id="metadata5028">
    <rdf:RDF>
      <cc:Work
         rdf:about="">
        <dc:format>image/svg+xml</dc:format>
        <dc:type
           rdf:resource="http://purl.org/dc/dcmitype/StillImage" />
        <dc:title></dc:title>
      </cc:Work>
    </rdf:RDF>
  </metadata>
  <g
     transform="translate(0,-2.3621826)"
     id="layer1">
    <g
       transform="matrix(0.99936024,0,0,0.99844682,-998.8496,1000.8335)"
       id="g6034">
      <path
         id="path5678"
         style="fill:none;stroke:#000000;stroke-width:2.50274444;stroke-linecap:butt;stroke-linejoin:miter;stroke-miterlimit:10;stroke-dasharray:none;stroke-opacity:0.15"
         d="m 1994.7234,166.58044 c -0.9903,12.2223 -1.1957,37.23924 -1.9315,43.56351 -0.9847,8.45826 -3.3485,10.81969 -9.255,12.39336 -4.8949,1.30276 -11.5252,2.79969 -14.2887,3.50886 -2.7636,0.71102 -3.6308,1.19089 -3.6308,1.73733 0,0 0,0.0296 0.01,0.0823 0,0.0277 0.01,0.0545 0.01,0.0795 0.1193,0.72859 15.8556,2.69152 23.527,2.69152 l 133.0098,0 c 7.6696,0 23.4058,-1.96293 23.5252,-2.69152 0.01,-0.025 0.01,-0.0518 0.012,-0.0795 0.01,-0.0527 0.01,-0.0823 0.01,-0.0823 0,-0.54644 -0.8681,-1.02631 -3.6307,-1.73733 -2.7645,-0.70917 -9.3948,-2.2061 -14.2897,-3.50886 -5.9066,-1.57367 -8.2684,-3.9351 -9.2541,-12.39336 -0.7357,-6.32427 -0.9412,-31.3412 -1.9333,-43.56351" />
      <path
         d="m 2326.9781,86.745191 -542.6267,0 0,-302.238281 542.6267,0 0,302.238281 z m 11.764,-327.340281 -566.1547,0 c -7.3688,0 -13.3623,5.98864 -13.3623,13.34939 l 0,380.47623 c 0,7.36071 5.9935,13.35028 13.3623,13.35028 l 224.212,0 117.7307,0 224.212,0 c 7.3687,0 13.3623,-5.98957 13.3623,-13.35028 l 0,-380.47623 c 0,-7.36075 -5.9936,-13.34939 -13.3623,-13.34939 z"
         style="fill:none;stroke:#000000;stroke-width:2.50274444;stroke-linecap:butt;stroke-linejoin:miter;stroke-miterlimit:10;stroke-dasharray:none;stroke-opacity:0.15"
         id="path5680" />
    </g>
    <g
       transform="matrix(0.99863862,0,0,0.99742216,-997.3958,1001.0698)"
       id="g6028">
      <path
         id="path5692"
         style="fill:#000000;fill-opacity:0.15;fill-rule:nonzero;stroke:none"
         d="m 2507.3082,-65.1935 c 1.4836,0 2.6849,1.20198 2.6849,2.68412 0,1.48028 -1.2013,2.68227 -2.6849,2.68227 -1.4845,0 -2.6858,-1.20199 -2.6858,-2.68227 0,-1.48214 1.2013,-2.68412 2.6858,-2.68412" />
      <path
         id="path5696"
         style="fill:#000000;fill-opacity:0.15;fill-rule:nonzero;stroke:none"
         d="m 2507.3068,221.9024 c -2.9311,0 -5.3059,-2.37345 -5.3059,-5.30166 0,-2.92729 2.3748,-5.30259 5.3059,-5.30259 2.9311,0 5.3068,2.3753 5.3068,5.30259 0,2.92821 -2.3757,5.30166 -5.3068,5.30166" />
      <path
         d="m 2603.8271,202.49733 -193.0403,0 0,-251.01352 193.0403,0 0,251.01352 z"
         style="fill:none;stroke:#000000;stroke-width:2.50493407;stroke-linecap:butt;stroke-linejoin:miter;stroke-miterlimit:10;stroke-dasharray:none;stroke-opacity:0.15"
         id="path5698" />
      <path
         id="path5702"
         style="fill:none;stroke:#000000;stroke-width:2.50493407;stroke-linecap:butt;stroke-linejoin:miter;stroke-miterlimit:10;stroke-dasharray:none;stroke-opacity:0.15"
         d="m 2397.6625,-76.65532 c -5.3855,0 -9.7659,4.37521 -9.7659,9.75639 l 0,287.77567 c 0,5.38118 4.3804,9.76009 9.7659,9.76009 l 219.2893,0 c 5.3864,0 9.7667,-4.37891 9.7667,-9.76009 l 0,-287.77567 c 0,-5.38118 -4.3803,-9.75639 -9.7667,-9.75639 l -219.2893,0 z" />
    </g>
    <g
       transform="matrix(1.0006853,0,0,0.99826382,-1001.0719,1000.3161)"
       id="g6018">
      <path
         d="m 1704.1685,131.6863 -125.4456,0 0,-223.581525 125.4456,0 0,223.581525 z m -9.1439,-273.63759 -106.9496,0 c -13.0726,0 -23.825,10.16599 -23.825,23.22783 l 0,276.61022 c 0,13.06092 10.7524,24.22544 23.825,24.22544 l 106.9727,0 c 13.0746,0 23.5965,-11.16452 23.5965,-24.22544 l 0,-276.61022 c 0,-13.06184 -10.5451,-23.22783 -23.6196,-23.22783 z"
         style="fill:none;stroke:#000000;stroke-width:2.50131607;stroke-linecap:butt;stroke-linejoin:miter;stroke-miterlimit:10;stroke-dasharray:none;stroke-opacity:0.15"
         id="path5704" />
      <path
         id="path5708"
         style="fill:#000000;fill-opacity:0.15;fill-rule:nonzero;stroke:none"
         d="m 1641.2866,164.54182 c -4.2693,0 -7.7307,-3.45893 -7.7307,-7.72134 0,-4.26519 3.4614,-7.72227 7.7307,-7.72227 4.2675,0 7.7307,3.45708 7.7307,7.72227 0,4.26241 -3.4632,7.72134 -7.7307,7.72134" />
      <path
         id="path5712"
         style="fill:#000000;fill-opacity:0.15;fill-rule:nonzero;stroke:none"
         d="m 1628.871,-119.12473 24.8283,0 c 1.4373,0 2.6025,0.87097 2.6025,2.30411 0,1.4359 -1.1652,2.30503 -2.6025,2.30503 l -24.8283,0 c -1.4354,0 -2.6006,-0.86913 -2.6006,-2.30503 0,-1.43314 1.1652,-2.30411 2.6006,-2.30411" />
    </g>
    <g
       transform="matrix(1.0002445,0,0,1.0002706,-1000.2201,1000.4129)"
       id="g6023">
      <path
         id="path5684"
         style="fill:none;stroke:#000000;stroke-width:2.49935627;stroke-linecap:butt;stroke-linejoin:miter;stroke-miterlimit:10;stroke-dasharray:none;stroke-opacity:0.15"
         d="m 1580.5837,215.10908 c 0,-0.35042 -0.2869,-0.63797 -0.6386,-0.63797 l -229.5086,-0.0619 c -0.7145,3.59947 -3.8936,6.31225 -7.7066,6.31225 l -75.6576,0 c -3.813,0 -6.9912,-2.71278 -7.7075,-6.31225 l -229.5068,0.0619 c -0.3508,0 -0.6395,0.28755 -0.6395,0.63797 l 0,7.87668 c 0,0.35135 0.3683,0.90333 0.3683,0.90333 0,0 6.2768,6.74774 25.3374,6.74774 l 499.9473,0 c 19.0625,0 25.3374,-6.74774 25.3374,-6.74774 0.2323,-0.233 0.3748,-0.55198 0.3748,-0.90333 l 0,-7.87668 z" />
      <path
         id="path5688"
         style="fill:none;stroke:#000000;stroke-width:2.49935627;stroke-linecap:butt;stroke-linejoin:miter;stroke-miterlimit:10;stroke-dasharray:none;stroke-opacity:0.15"
         d="m 1501.7402,193.18317 0,2.25418 -393.3337,0 0,-2.25418 0,-243.10818 393.3337,0 0,243.10818 z m 25.838,21.01711 0,-275.2917 c 0,-8.08009 -6.6154,-14.68914 -14.7043,-14.68914 l -415.9454,0 c -8.087,0 -14.7034,6.60905 -14.7034,14.68914 l 0,275.2917" />
      <path
         id="path5716"
         style="fill:#000000;fill-opacity:0.15;fill-rule:nonzero;stroke:none"
         d="m 1286.3912,-66.0704 c 1.7233,0 3.1208,1.39615 3.1208,3.11776 0,1.7216 -1.3975,3.11868 -3.1208,3.11868 -1.7233,0 -3.1208,-1.39708 -3.1208,-3.11868 0,-1.72161 1.3975,-3.11776 3.1208,-3.11776" />
    </g>
  </g>
</svg>
