<?xml version="1.0" encoding="UTF-8" standalone="no"?>
<svg
   xmlns:dc="http://purl.org/dc/elements/1.1/"
   xmlns:cc="http://creativecommons.org/ns#"
   xmlns:rdf="http://www.w3.org/1999/02/22-rdf-syntax-ns#"
   xmlns:svg="http://www.w3.org/2000/svg"
   xmlns="http://www.w3.org/2000/svg"
   version="1.1"
   id="svg6129"
   viewBox="0 0 260 450"
   height="127mm"
   width="73.377777mm">
  <defs
     id="defs6131">
    <filter
       id="filter4489-1-8"
       style="color-interpolation-filters:sRGB">
      <feFlood
         id="feFlood4491-5-2"
         result="flood"
         flood-color="rgb(0,0,0)"
         flood-opacity="0.10000000000000001" />
      <feComposite
         id="feComposite4493-7-8"
         result="composite1"
         operator="in"
         in2="SourceGraphic"
         in="flood" />
      <feGaussianBlur
         id="feGaussianBlur4495-7-3"
         result="blur"
         stdDeviation="0"
         in="composite1" />
      <feOffset
         id="feOffset4497-8-9"
         result="offset"
         dy="6"
         dx="6" />
      <feComposite
         id="feComposite4499-0-1"
         result="composite2"
         operator="over"
         in2="offset"
         in="SourceGraphic" />
    </filter>
  </defs>
  <metadata
     id="metadata6134">
    <rdf:RDF>
      <cc:Work
         rdf:about="">
        <dc:format>image/svg+xml</dc:format>
        <dc:type
           rdf:resource="http://purl.org/dc/dcmitype/StillImage" />
        <dc:title></dc:title>
      </cc:Work>
    </rdf:RDF>
  </metadata>
  <g
     transform="translate(284.2857,-353.07649)"
     id="layer1">
    <g
       transform="translate(-3452.7919,-301.58637)"
       id="g8368">
      <rect
         style="opacity:1;fill:#2c4251;fill-opacity:1;stroke:none;stroke-width:1;stroke-linecap:square;stroke-miterlimit:4;stroke-dasharray:none;stroke-opacity:1"
         id="rect4221-0-9"
         width="300"
         height="500"
         x="3470"
         y="-722.63782"
         transform="matrix(0.86666667,0,0,0.9,161.17286,1305.0369)" />
      <path
         style="fill:#1f2532;fill-opacity:1;fill-rule:evenodd;stroke:none;stroke-width:1px;stroke-linecap:butt;stroke-linejoin:miter;stroke-opacity:1"
         d="m 2268.5078,2013.0723 0,189.1777 259.9297,0 0,-177.9863 c -85.2115,-3.6442 -174.1237,-7.4597 -259.9297,-11.1914 z"
         transform="translate(900,-1097.6378)"
         id="path4670" />
      <path
         style="fill:#233840;fill-opacity:1;fill-rule:evenodd;stroke:none;stroke-width:1px;stroke-linecap:butt;stroke-linejoin:miter;stroke-opacity:1"
         d="m 3303.0529,789.37275 -3.875,1.5 -1.625,3.125 -2.75,4.5 -4.375,-4 -4.5,-1.875 -7.5,-0.25 -8.25,2.5 -4,4.75 -0.625,9.125 1.625,8.25 -0.125,2.5 -3.125,0.5 -8,0.875 -6.75,4.5 -7.5,7.25 6.375,77.625 26.875,2.75 1.5,17.5 1.75,2.625 -0.75,3 0.75,10.625 1.625,2.75 c 0,0 -1.25,1.75 -1.875,1.875 -0.625,0.125 -1.875,3.75 -1.875,3.75 l -0.25,5.625 5.375,5.625 5.5,-0.125 5.25,-0.375 8.875,-2.5 7.25,-1 2.25,3.875 -1.5,-10.75 -5,-1.25 -2.75,-0.125 -5.875,-1.625 -3.125,-1.25 c 0,0 0.875,-2.375 1.25,-3 0.375,-0.625 0.125,-4.5 0.125,-4.5 l -0.25,-7.25 c 0,0 0.375,-5.75 0.25,-6.25 -0.125,-0.5 -0.75,-6.375 -0.75,-6.375 l -0.375,-5.75 2.75,-7 17.875,-2.25 6.375,-40.875 4.375,-11.75 c 0,0 1.625,-8 1.875,-8.625 0.25,-0.625 0.875,-9.25 0.875,-10.125 0,-0.875 0.125,-10.75 0.125,-10.75 l -0.5,-7.25 1.25,-2.625 -0.5,-1.375 -1.125,-1.125 -2.25,1.25 -0.375,1.875 -3.625,0.875 -3.25,-0.25 -0.25,-1 2.5,-3.875 0.5,-0.25 c 0.5,-0.25 0.875,-0.25 1.25,-0.75 0.375,-0.5 1,-1.375 1,-1.375 l 0,-0.75 -1.375,-2.75 -0.75,-4.25 -1.5,-2.125 -0.75,-2.125 2.25,-1.375 0,-2.875 -3.125,-2.625 -5.625,-2.25 -7.25,-0.375 z m 11.125,31 c 0.75,0 1.25,1.625 1.25,1.625 l -0.875,1.25 -1.75,0.875 -0.75,3.5 1.375,1.875 2.75,0.625 2,0.25 c 0,0 -0.25,1.625 0.5,2.25 0.75,0.625 1.5,1.5 1.5,1.5 l 0.25,2.125 -0.375,3.25 c 0,0 -0.125,1.125 -0.75,1.625 -0.625,0.5 -2,1.375 -2.5,0.875 -0.5,-0.5 -1.625,-1.125 -2,-1.75 -0.375,-0.625 -1.125,-3 -1.25,-3.5 -0.125,-0.5 -1,-3.5 -1,-3.5 l -0.875,-2.625 -4.125,-3 -0.625,-3.125 3.875,-2.125 c 0,0 2.625,-2 3.375,-2 z m -19.5,9 c 0.625,0 4.75,1.75 4.75,1.75 l 1.125,1.875 -0.375,3 -2,-0.625 -3.625,-1.875 -1.125,-1.875 1.25,-2.25 z"
         id="path4660" />
      <path
         style="fill:#1f2131;fill-opacity:1;fill-rule:evenodd;stroke:none;stroke-width:1px;stroke-linecap:butt;stroke-linejoin:miter;stroke-opacity:1"
         d="m 3193.1154,822.31025 -1.25,1.1875 0.1895,6.25 0.062,11.375 c 0,0 1.5625,9.8125 1.5625,10.125 0,0.3125 3.4375,10 3.4375,10 l 1.0625,8.1875 -1.25,35.4375 -2.25,8.5625 -0.75,5.5625 1.0625,1.4375 11.625,0.5625 13.625,1.75 10.375,1.8125 0.75,3.1875 1.6875,4.9375 0.061,6.1875 -1.3125,3.3125 -0.25,11.4375 -1.1875,0.1875 -15.5,0.8125 -11.6875,1 -10.25,1.625 -7.6875,1.375 -1.4375,0.875 c 0,0 0.1875,2 0.3125,2.3125 0.125,0.3125 1.125,1.1875 1.125,1.1875 l 0,1.25 -0.625,1.3125 -2.375,1.125 c 0,0 -0.1875,3.75 0,4.125 0.1875,0.375 1.4375,1.6875 1.6875,1.875 0.25,0.1875 3.0625,1.5 3.3125,1.625 0.25,0.125 2.9375,-0.4375 2.9375,-0.4375 l 1.75,-2.3125 -0.125,-3.875 -1.5,-1.4375 -0.4375,-2.6875 2.625,-1 3.4375,-1 7.375,-0.625 8.625,0 11.4375,-0.6875 -10.4375,7.1875 -5.25,4 -0.9375,1.9375 0.3125,1.6875 1.0625,1.75 0.1875,1.0625 -0.6875,1.625 -1.5,2 -0.25,5.12504 3.5,1.75 3,0.3125 2.3125,-1.4375 0.9375,-2.4375 -0.25,-2.12504 -0.25,-2.4375 -1.25,-0.9375 c 0,0 -0.061,-1.75 -0.061,-2.0625 0,-0.3125 0.5625,-0.625 0.5625,-0.625 l 7.25,-6.5 8.8125,-4.75 1.75,0.3125 2.8125,0.9375 2.875,0.1875 2.9375,-1.75 0.8125,-1.6875 c 0,0 18.375,6.6875 18.625,6.75 0.25,0.062 11.3125,5.375 11.3125,5.375 l 0.125,1.625 -1.4375,0.5625 -2,1.4375 -1.25,2.5 c -0.125,0.25 0.375,2.87504 0.375,3.18754 0,0.3125 0.625,1.8125 0.625,1.8125 l 2.3125,1.125 3.625,1.125 2.6875,-1.5 1.1875,-1.375 0.061,-2.1875 -0.125,-1.68754 -1.0625,-2.1875 -1.375,-0.9375 0.062,-1.5625 0.6875,-1.3125 0.875,-1.125 3.6875,-0.9375 1.6875,-2.1875 0.4375,-4.0625 -0.25,-2.375 -0.9375,-2.5 -2.1875,-2.125 -4.875,-1.875 -5.4375,-1.375 -8.5625,-1.4375 -8.9375,-0.3125 -9.75,0.6875 -0.375,-14.8125 -0.125,-4.125 0,-7.9375 2.75,-1.375 4.25,-0.4375 3.8125,-1.6875 3.875,-2.6875 15.4375,-6.25 1.75,0.6875 7.4375,-1 1.125,-0.6875 5.6875,-1.1875 6.6875,-0.875 4.6875,-1 0.1875,-2 -0.1875,-4.3125 c 0,0 -1.6875,-2.8125 -2,-3 -0.3125,-0.1875 -3.875,-1.375 -3.875,-1.375 l -4.9375,0.4375 -8.125,1.375 -7.3125,1.1875 -7.625,0.8125 -10.5,-0.625 -0.5625,-0.4375 -0.125,-2.625 -1.75,-17.3125 -3,-22.3125 -2.625,-18.1875 -0.75,-12.6875 -2.1875,-7.25 -2.9375,-1.3125 -47.375,-1.1875 z m 67.9375,139.1875 7.375,0 4,0.3125 2.75,0.875 0.8125,0.375 -0.25,1.0625 -1.4375,1.4375 -1,0.5625 -0.5625,2.0625 0,1.875 0.5625,1.5 c 0,0 0.062,0.125 -0.1875,0.125 -0.25,0 -5.3125,-2.875 -5.3125,-2.875 l -5.25,-3.0625 -7.25,-3.3125 5.75,-0.9375 z"
         id="path4630" />
      <path
         style="fill:#1f2c3a;fill-opacity:1;fill-rule:evenodd;stroke:none;stroke-width:1px;stroke-linecap:butt;stroke-linejoin:miter;stroke-opacity:1"
         d="m 2425.6777,1960.1348 -14.25,7.25 -8.25,167.75 12.25,-4.75 5.75,-134 42.7442,1.6152 -0.416,31.2559 4.5957,2.5644 2.8281,-1.8574 -0.3164,-31.7109 57.8242,2.1835 0,-37.6191 -102.7598,-2.6816 z"
         transform="translate(900,-1097.6378)"
         id="path4646" />
      <path
         style="fill:#1f1f22;fill-opacity:1;fill-rule:evenodd;stroke:none;stroke-width:1px;stroke-linecap:butt;stroke-linejoin:miter;stroke-opacity:1"
         d="m 2524.0508,1876.5215 -2.5625,0.6191 -3.0938,11.4024 -19.2675,1.7675 -3.3594,0.8829 -1.6797,1.2382 -1.9453,1.2364 -5.4785,26.7832 2.1211,-23.0703 -1.3262,-1.9434 -1.7676,-0.6191 -1.8574,0.707 -0.2637,7.248 -11.4902,0.4414 -1.9453,1.7676 -3.2715,34.5606 4.1543,2.0332 17.5019,-0.1778 1.1485,0.795 0.5312,7.955 -1.2383,7.1602 -3.5351,0.6191 -2.7403,0.8828 -0.1757,4.5957 23.4179,2.7286 -0.625,-6.5 -5.125,-1.25 0.125,-0.625 0.5,-6.375 0.875,-8 7.5,-1 0,1.5 1.125,2.25 5,0.125 2.25,-0.875 4.375,0 5.375,-11.625 1.1348,-7.8164 0,-45.3731 -4.3867,-4.0488 z m -1.4981,87.7383 c 0,0 -3.625,2.375 -4.25,2.375 -0.625,0 1.75,2.75 1.75,2.75 l 8.3848,0.166 0,-5.0957 -5.8848,-0.1953 z"
         transform="translate(900,-1097.6378)"
         id="path4652" />
      <g
         id="g8352"
         transform="matrix(0.13434405,0,0,0.13404443,2779.9584,742.23858)"
         style="fill:#ffffff">
        <path
           transform="translate(900,-1097.6378)"
           id="path8346"
           d="m 3094.8713,2360.9792 c -0.3067,-0.3067 -4.9845,-1.4619 -10.3952,-2.5673 -5.4108,-1.1053 -10.2974,-2.3743 -10.8592,-2.82 -0.5618,-0.4458 -2.1464,-1.1398 -3.5214,-1.5424 -4.0787,-1.1942 -13.6003,-5.5746 -27.9819,-12.8729 -18.6611,-9.47 -19.4525,-9.8921 -20.0181,-10.6772 -0.275,-0.3817 -2.3,-1.652 -4.5,-2.8228 -2.2,-1.1708 -5.6367,-3.1438 -7.6371,-4.3843 -2.0005,-1.2406 -6.5005,-4.0291 -10,-6.1967 -3.4996,-2.1676 -8.6129,-5.4428 -11.3629,-7.2781 -2.75,-1.8354 -5.675,-3.7803 -6.5,-4.322 -0.825,-0.5416 -5.775,-3.9414 -11,-7.5551 -5.225,-3.6137 -11.3,-7.7695 -13.5,-9.2352 -2.2,-1.4658 -4.5976,-3.2312 -5.328,-3.9233 -0.7304,-0.6921 -2.2771,-1.7662 -3.437,-2.387 -1.16,-0.6208 -2.5874,-1.5313 -3.172,-2.0234 -0.5847,-0.4921 -3.538,-2.6818 -6.563,-4.866 -8.7875,-6.3449 -9.1285,-6.593 -17,-12.3678 -4.125,-3.0262 -8.4,-6.1964 -9.5,-7.045 -7.5788,-5.8462 -18.6998,-14.3351 -20.6593,-15.7697 -1.2874,-0.9425 -10.2157,-7.8106 -19.8407,-15.2624 -9.625,-7.4518 -18.5411,-14.3306 -19.8136,-15.2863 -1.2724,-0.9557 -3.0871,-2.4126 -4.0327,-3.2376 -5.355,-4.6722 -18.3632,-14 -19.5239,-14 -0.748,0 -2.4333,0.828 -3.745,1.8401 -1.3116,1.012 -6.3686,4.0495 -11.2377,6.75 -4.8691,2.7004 -10.371,5.8099 -12.2263,6.9099 -9.3965,5.5709 -27.7257,15.4974 -33.9208,18.3703 -3.85,1.7854 -7.7875,3.6738 -8.75,4.1964 -1.0323,0.5605 -1.75,0.575 -1.75,0.035 0,-1.5495 13.4557,-13.4728 25.6916,-22.7658 13.4929,-10.2477 21.3735,-17.6506 23.8929,-22.4446 2.7763,-5.2829 1.9214,-15.2261 -1.3349,-21.8058 -1.4285,-2.8865 -6.9582,-11.6708 -6.7246,-11.9043 0.2335,-0.2336 7.6973,6.6589 10.0504,8.4027 2.353,1.7438 6.0351,5.0405 8.6146,6.9478 4.5007,3.1061 6.8787,5.287 10.06,7.3394 1.7875,1.138 6.4,4.3415 10.25,7.1189 3.85,2.7773 10.15,7.1779 14,9.7791 3.85,2.6011 7.5553,5.2527 8.234,5.8925 0.6786,0.6397 4.2786,3.2217 8,5.7378 3.7213,2.516 9.916,6.8272 13.766,9.5803 3.85,2.7531 8.35,5.7466 10,6.6523 1.65,0.9057 3.225,1.9249 3.5,2.2651 1.0088,1.2477 24.6889,17.0046 47,31.274 3.025,1.9347 8.7385,5.6126 12.6967,8.1731 3.9583,2.5605 7.6708,4.6554 8.25,4.6554 0.5793,0 1.0533,0.3603 1.0533,0.8007 0,0.4404 1.9125,1.7876 4.25,2.9937 2.3375,1.2061 7.4,4.2016 11.25,6.6567 3.85,2.4552 7.525,4.483 8.1666,4.5064 0.6417,0.023 1.3167,0.4026 1.5,0.8426 0.9184,2.2045 60.8591,33.1999 64.204,33.1999 0.4065,0 2.6524,0.8716 4.9909,1.9369 2.3385,1.0653 6.4763,2.4803 9.1951,3.1443 2.7189,0.6641 5.3934,1.5509 5.9434,1.9707 1.7165,1.3102 12.565,2.9481 19.5263,2.9481 8.3156,0 14.6293,-2.9579 17.212,-8.0635 2.8363,-5.6071 5.4716,-12.138 6.8341,-16.9365 0.7028,-2.475 1.5894,-4.95 1.9703,-5.5 0.381,-0.55 1.4668,-3.475 2.4129,-6.5 0.9461,-3.025 2.3056,-6.85 3.0211,-8.5 0.7154,-1.65 1.6259,-4.125 2.0233,-5.5 0.3973,-1.375 1.3345,-3.85 2.0826,-5.5 0.748,-1.65 2.2253,-5.7 3.2828,-9 2.9638,-9.2487 11.1329,-32.6448 12.5699,-36 0.7066,-1.65 1.8676,-5.25 2.5799,-8 0.7123,-2.75 1.6269,-5.45 2.0324,-6 0.4055,-0.55 1.5311,-3.925 2.5012,-7.5 0.9701,-3.575 2.0951,-6.95 2.5,-7.5 0.4049,-0.55 1.5299,-3.925 2.5,-7.5 0.9701,-3.575 2.0892,-6.95 2.4868,-7.5 0.3976,-0.55 1.4773,-3.7 2.3992,-7 0.922,-3.3 2.3263,-7.418 3.1207,-9.1511 0.7945,-1.7332 1.4445,-3.6094 1.4445,-4.1694 0,-1.2768 6.8412,-22.9727 8.0974,-25.6795 0.8974,-1.9338 2.8669,-8.363 7.0457,-23 1.0992,-3.85 2.5881,-8.35 3.3088,-10 0.7206,-1.65 1.8726,-5.475 2.5601,-8.5 0.6874,-3.025 1.5706,-5.95 1.9626,-6.5 0.3919,-0.55 1.4806,-3.925 2.4193,-7.5 0.9386,-3.575 2.1096,-7.4 2.6021,-8.5 0.838,-1.8714 1.9425,-5.5975 7.0398,-23.75 1.1197,-3.9875 2.3978,-7.925 2.8403,-8.75 0.4424,-0.825 1.6127,-4.875 2.6007,-9 0.988,-4.125 2.1234,-7.95 2.5232,-8.5 0.3997,-0.55 1.5247,-4.375 2.5,-8.5 0.9752,-4.125 2.1002,-7.95 2.5,-8.5 0.3997,-0.55 1.5247,-4.375 2.5,-8.5 0.9752,-4.125 2.1002,-7.95 2.5,-8.5 0.3997,-0.55 1.5247,-4.375 2.5,-8.5 0.9752,-4.125 2.1002,-7.95 2.5,-8.5 0.3997,-0.55 1.4899,-4.375 2.4227,-8.5 0.9328,-4.125 2.0474,-8.175 2.4769,-9 0.4294,-0.825 1.5892,-4.875 2.5772,-9 0.988,-4.125 2.1234,-7.95 2.5232,-8.5 0.3997,-0.55 1.5247,-4.375 2.5,-8.5 0.9752,-4.125 2.1127,-7.95 2.5276,-8.5 0.4149,-0.55 1.5318,-4.5242 2.4819,-8.8315 1.2147,-5.507 2.0415,-7.5175 2.7854,-6.7735 1.1166,1.1165 0.078,12.4386 -2.6688,29.105 -0.7706,4.675 -1.7263,11.3585 -2.1237,14.8523 -0.7209,6.3377 -0.7171,6.3507 1.6375,5.6574 1.298,-0.3821 4.1601,-1.5152 6.3601,-2.5178 2.2,-1.0027 7.15,-3.2535 11,-5.0017 29.0464,-13.19 64.9943,-32.1315 69.75,-36.7524 5.6759,-5.5151 4.7918,-11.0623 -2.07,-12.9863 -1.474,-0.4133 -35.2387,-0.6828 -75.0326,-0.5989 -39.7939,0.084 -75.9689,0.5356 -75.5,0.087 0.4689,-0.4485 10.7026,-2.0703 17.8526,-2.6875 29.3648,-2.5345 51.9118,-4.7895 97.5,-5.1167 46.4583,-0.3335 48.8535,-0.9058 51.9731,1.0164 3.7976,2.3399 4.7279,7.9413 3.0359,12.0262 -1.9719,4.7605 -8.9774,9.5104 -38.009,25.7707 -1.375,0.7701 -8.575,4.9229 -16,9.2285 -7.425,4.3056 -19.706,11.3595 -27.2911,15.6754 -7.585,4.316 -15.46,8.8497 -17.5,10.0751 -2.0399,1.2253 -5.6373,3.2352 -7.9942,4.4664 -2.8695,1.4989 -4.4645,3.0755 -4.8278,4.7721 -0.2984,1.3935 -0.9376,3.4336 -1.4204,4.5336 -0.4829,1.1 -1.784,6.05 -2.8915,11 -2.0409,9.1226 -4.803,20.4722 -9.6127,39.5 -1.4597,5.775 -3.6281,14.55 -4.8186,19.5 -1.1905,4.95 -2.4389,9.45 -2.7743,10 -0.3353,0.55 -1.3667,4.6 -2.2919,9 -0.9253,4.4 -2.1014,8.9 -2.6136,10 -0.5123,1.1 -1.8276,5.825 -2.9231,10.5 -3.7498,16.0031 -6.2063,25.5006 -7.1127,27.5 -0.4987,1.1 -1.793,5.6 -2.8762,10 -1.9831,8.0551 -4.6639,17.9814 -9.5875,35.5 -1.4685,5.225 -3.5483,12.875 -4.6219,17 -1.0736,4.125 -2.363,8.4 -2.8653,9.5 -0.5024,1.1 -1.8064,5.375 -2.8978,9.5 -3.8397,14.5114 -6.1592,22.5151 -6.9555,24 -0.4424,0.825 -1.6128,4.875 -2.6008,9 -0.988,4.125 -2.1447,7.95 -2.5703,8.5 -0.4257,0.55 -1.5048,3.925 -2.3979,7.5 -0.8931,3.575 -2.041,7.4 -2.5509,8.5 -0.5099,1.1 -1.6546,4.7 -2.5439,8 -0.8893,3.3 -2.2566,7.418 -3.0385,9.1511 -0.7819,1.7331 -1.4216,3.6145 -1.4216,4.1809 0,0.5663 -1.8644,6.5733 -4.1431,13.3489 -2.2787,6.7755 -5.0197,15.0191 -6.0912,18.3191 -1.0716,3.3 -2.5396,7.35 -3.2623,9 -0.7228,1.65 -1.8855,5.025 -2.5839,7.5 -0.6983,2.475 -1.5814,4.95 -1.9623,5.5 -0.3809,0.55 -1.4867,3.475 -2.4572,6.5 -0.9706,3.025 -2.0776,5.95 -2.4602,6.5 -0.3825,0.55 -1.5214,3.25 -2.531,6 -3.8107,10.3801 -7.5648,14.5964 -15.6172,17.5396 -5.0182,1.8342 -13.8636,2.6551 -15.1158,1.4029 z"
           style="opacity:1;fill:#ffffff;fill-opacity:1;fill-rule:nonzero;stroke:none;stroke-width:1;stroke-linecap:square;stroke-linejoin:miter;stroke-miterlimit:4;stroke-dasharray:none;stroke-opacity:1" />
        <path
           transform="translate(900,-1097.6378)"
           id="path8348"
           d="m 2589.0955,1986.7547 c 0,-1.351 5.7263,-6.1593 8.9729,-7.5344 1.3899,-0.5887 3.2021,-1.6005 4.0271,-2.2485 0.825,-0.648 3.975,-1.9705 7,-2.9389 3.025,-0.9685 5.95,-2.1042 6.5,-2.5238 0.55,-0.4197 4.825,-1.5103 9.5,-2.4237 4.675,-0.9134 9.175,-1.9356 10,-2.2717 6.2219,-2.5348 108.0578,-22.6445 138.5,-27.3499 7.15,-1.1052 13.675,-2.2899 14.5,-2.6326 0.825,-0.3428 8.025,-1.6705 16,-2.9505 7.975,-1.28 21.475,-3.4627 30,-4.8504 125.905,-20.495 260.633,-37.7264 303.25,-36.9995 13.3933,0.2285 14.9465,1.8831 11.375,2.9433 -2.2,0.6531 -16.125,2.3416 -27.125,3.4468 -46.9521,4.7172 -120.2024,15.6855 -197.5,29.5732 -7.975,1.4328 -20.575,3.6975 -28,5.0326 -7.425,1.3351 -19.125,3.3757 -26,4.5346 -6.875,1.1588 -13.175,2.3788 -14,2.7109 -1.6089,0.6476 -19.9909,4.0672 -39.5,7.3481 -6.6,1.1099 -12.675,2.2965 -13.5,2.6369 -0.825,0.3403 -7.125,1.6423 -14,2.8933 -6.875,1.251 -18.575,3.4465 -26,4.8788 -7.425,1.4322 -18.9,3.5052 -25.5,4.6066 -6.6,1.1014 -12.675,2.2859 -13.5,2.6323 -0.825,0.3464 -7.4625,1.6735 -14.75,2.9491 l -26.5,4.6387 c -7.2875,1.2757 -13.925,2.5944 -14.75,2.9304 -0.825,0.3361 -7.125,1.3459 -14,2.2439 -6.875,0.8981 -13.4,2.0231 -14.5,2.5 -1.1,0.4769 -8.3,1.6055 -16,2.5081 -7.7,0.9026 -14.9548,2.023 -16.1217,2.4898 -3.5394,1.4158 -18.3783,2.4061 -18.3783,1.2265 z"
           style="opacity:1;fill:#ffffff;fill-opacity:1;fill-rule:nonzero;stroke:none;stroke-width:1;stroke-linecap:square;stroke-linejoin:miter;stroke-miterlimit:4;stroke-dasharray:none;stroke-opacity:1" />
        <path
           transform="translate(900,-1097.6378)"
           id="path8350"
           d="m 2734.2238,2231.1914 c -1.8275,-2.202 -1.4052,1.2003 -7.7142,-62.1547 -2.9184,-29.307 -5.2345,-51.9326 -5.3397,-52.1635 -0.1032,-0.2265 -11.15,-9.2893 -15.0372,-12.3365 -1.7541,-1.375 -4.0768,-3.2466 -5.1615,-4.1592 -1.0848,-0.9125 -3.8237,-3.1625 -6.0865,-5 -10.1127,-8.2118 -19.9399,-16.3635 -23.316,-19.3408 -3.2879,-2.8996 -6.2735,-5.4262 -12.4101,-10.5025 -2.9902,-2.4737 -6.1851,-5.1725 -7.0997,-5.9975 -0.9146,-0.825 -2.743,-2.3856 -4.0631,-3.4679 -1.3202,-1.0824 -8.2503,-6.9334 -15.4003,-13.0024 -7.15,-6.069 -21.6701,-18.2309 -32.2669,-27.0265 -10.5968,-8.7956 -27.9953,-21.6857 -27.5362,-21.8387 1.9545,-0.6515 35.4799,18.6201 49.9665,28.4969 4.3368,2.3969 6.577,4.5251 9.5866,6.2994 1.7875,1.0406 5.95,3.8493 9.25,6.2415 3.3,2.3923 9.375,6.7894 13.5,9.7715 7.8071,5.6441 23.6318,17.2034 29.4691,21.5262 1.8568,1.375 6.5631,4.75 10.4584,7.5 3.8953,2.75 10.4478,7.475 14.5611,10.5 4.1134,3.025 9.0922,6.625 11.064,8 1.9719,1.375 4.8567,3.5125 6.4107,4.75 3.5397,2.8188 4.3801,2.8007 10.5367,-0.2279 2.75,-1.3527 5.3241,-2.4736 5.7203,-2.4908 0.3962,-0.017 3.1799,-1.1563 6.186,-2.5313 3.006,-1.375 5.7081,-2.5 6.0045,-2.5 0.2965,0 3.4866,-1.35 7.0892,-3 3.6025,-1.65 6.8763,-3.0153 7.275,-3.0339 0.3987,-0.019 2.525,-0.9034 4.725,-1.9661 2.2,-1.0627 4.3262,-1.9474 4.7249,-1.9661 0.3987,-0.019 3.6725,-1.3839 7.2751,-3.0339 3.6025,-1.65 6.8763,-3.0153 7.275,-3.0339 0.3987,-0.019 2.525,-0.9034 4.725,-1.9661 2.2,-1.0627 4.3241,-1.9474 4.7203,-1.9661 0.3962,-0.019 3.1799,-1.1589 6.186,-2.5339 3.006,-1.375 5.706,-2.5 6,-2.5 0.2939,0 2.9102,-1.0722 5.814,-2.3827 2.9038,-1.3104 6.4047,-2.7073 7.7797,-3.1041 1.375,-0.3968 3.4,-1.2814 4.5,-1.9657 1.1,-0.6843 3.8,-1.8126 6,-2.5073 2.2,-0.6947 4.9,-1.8197 6,-2.5 1.1,-0.6803 3.8,-1.8132 6,-2.5175 2.2,-0.7044 5.125,-1.8778 6.5,-2.6076 2.8579,-1.5169 13.3546,-5.7898 20,-8.1415 2.475,-0.8759 4.725,-1.862 5,-2.1913 0.275,-0.3293 2.975,-1.4492 6,-2.4887 3.025,-1.0394 5.95,-2.1957 6.5,-2.5695 0.55,-0.3739 3.25,-1.4954 6,-2.4924 2.75,-0.997 5.45,-2.1409 6,-2.5419 0.55,-0.401 2.8,-1.288 5,-1.9709 2.2,-0.683 4.9,-1.7984 6,-2.4787 1.1,-0.6803 3.8,-1.8132 6,-2.5175 2.2,-0.7044 5.125,-1.8895 6.5,-2.6337 1.375,-0.7441 4.8625,-2.2611 7.75,-3.371 11.788,-4.5311 15.9514,-6.2117 19.9891,-8.0685 2.3315,-1.0722 4.5815,-1.9648 5,-1.9834 0.4185,-0.019 2.5609,-0.9034 4.7609,-1.9661 2.2,-1.0627 4.3241,-1.9474 4.7203,-1.9661 0.3962,-0.019 3.1799,-1.1589 6.186,-2.5339 3.006,-1.375 5.706,-2.5 6,-2.5 0.2939,0 2.9102,-1.0722 5.814,-2.3827 2.9038,-1.3104 6.4047,-2.7073 7.7797,-3.1041 1.375,-0.3968 3.4,-1.2814 4.5,-1.9657 1.1,-0.6843 3.8,-1.8316 6,-2.5496 2.2,-0.7179 5.575,-2.11 7.5,-3.0937 1.925,-0.9836 28.0375,-12.7179 29.6875,-13.09 2.8787,-0.6493 34.9191,-14.8625 33,-13.3397 -17.2899,8.7703 -51.4582,23.0591 -69.0685,31.4174 -5.5654,2.6905 -13.719,6.5707 -18.119,8.6226 -4.4,2.0519 -11.6,5.4299 -16,7.5066 -4.4,2.0767 -11.9107,5.6215 -16.6904,7.8773 -4.7798,2.2559 -9.1673,4.1016 -9.75,4.1016 -0.5828,0 -1.0596,0.45 -1.0596,1 0,0.55 -0.4688,1 -1.0417,1 -0.9576,0 -6.5047,2.4197 -19.4583,8.4879 -2.75,1.2882 -7.925,3.6794 -11.5,5.3138 -3.575,1.6344 -10.325,4.7789 -15,6.9878 -15.4644,7.3068 -23.472,10.9267 -25.75,11.6404 -1.2375,0.3877 -2.25,1.1245 -2.25,1.6375 0,0.5129 -0.5867,0.9326 -1.3037,0.9326 -0.717,0 -3.5295,1.0836 -6.25,2.4081 -2.7205,1.3244 -7.6463,3.6381 -10.9463,5.1415 -6.9767,3.1783 -28.3279,13.2159 -52,24.4461 -5.5,2.6093 -11.0125,5.058 -12.25,5.4416 -1.2375,0.3836 -2.25,1.1171 -2.25,1.6301 0,0.5129 -0.4688,0.9326 -1.0417,0.9326 -1.2992,0 -9.3481,3.7282 -32.8551,15.2182 l -18.3968,8.9922 0.6426,15.6448 c 0.3534,8.6046 0.9396,27.6567 1.3027,42.338 0.363,14.6812 1.0271,27.2812 1.4757,28 1.332,2.1341 4.0636,-0.266 7.1482,-6.2809 1.5266,-2.9768 3.2546,-7.2123 3.8399,-9.4123 0.5854,-2.2 1.6739,-5.35 2.4189,-7 1.8655,-4.1317 8.4656,-24.2404 8.4656,-25.7925 0,-2.195 5.5778,-12.0779 8.683,-15.3848 1.6409,-1.7475 6.096,-4.8762 9.9002,-6.9528 3.8042,-2.0765 7.0668,-4.1342 7.2501,-4.5727 0.1833,-0.4385 0.8163,-0.7972 1.4067,-0.7972 0.5903,0 5.8403,-2.6506 11.6667,-5.8901 18.0201,-10.0197 19.7902,-10.9676 51.5933,-27.6282 5.5,-2.8812 18.775,-9.6721 29.5,-15.0907 10.725,-5.4187 19.725,-10.0859 20,-10.3716 0.9763,-1.0143 77.8317,-39.0194 78.9066,-39.0194 0.6014,0 1.0934,-0.3509 1.0934,-0.7799 0,-0.4289 2.25,-1.653 5,-2.7201 2.75,-1.0672 5,-2.2023 5,-2.5226 0,-0.3203 2.25,-1.3914 5,-2.3803 2.75,-0.9889 5.0017,-2.0903 5.0037,-2.4475 0,-0.3573 2.1396,-1.5164 4.75,-2.5759 2.6105,-1.0595 4.9713,-2.1969 5.2463,-2.5276 0.275,-0.3307 2.525,-1.4765 5,-2.5461 2.475,-1.0696 4.725,-2.1822 5,-2.4724 0.275,-0.2902 11.1605,-5.0769 23.5,-11.9481 13.525,-7.5313 25.6443,-13.6457 29.9456,-16.0598 4.3014,-2.4141 74.4764,-40.3325 75.125,-40.1103 0.6487,0.2222 -58.3206,33.1218 -61.0706,34.6102 -6.2644,3.3906 -27.6475,16.0753 -29.0588,17.1638 -0.5823,0.4491 -2.6073,1.67 -4.5,2.7131 -4.6559,2.5659 -14.7603,8.4303 -18.4412,10.7029 -1.65,1.0188 -5.025,3.0043 -7.5,4.4123 -2.475,1.4079 -6.3,3.6389 -8.5,4.9577 -2.2,1.3187 -5.8,3.388 -8,4.5985 -2.2,1.2104 -4.2254,2.4778 -4.5008,2.8164 -0.2754,0.3386 -2.0754,1.4737 -4,2.5224 -5.6554,3.0815 -19.8072,11.2886 -29.4992,17.1077 -4.95,2.9719 -12.6,7.4702 -17,9.9961 -4.4,2.526 -12.5,7.2534 -18,10.5054 -5.5,3.252 -13.375,7.809 -17.5,10.1266 -4.125,2.3177 -7.725,4.4904 -8,4.8283 -0.275,0.3379 -4.325,2.8015 -9,5.4746 -13.7937,7.887 -25.2221,14.5228 -29.5,17.129 -2.2,1.3402 -5.8,3.3947 -8,4.5655 -2.2,1.1708 -4.225,2.4508 -4.5,2.8445 -0.275,0.3936 -0.95,0.8957 -1.5,1.1157 -0.8969,0.3586 -10.9017,6.0653 -19.9863,11.3999 -4.7004,2.7602 -18.7798,11.0075 -26.0137,15.2382 -3.3,1.9299 -7.35,4.3425 -9,5.3612 -2.6966,1.6649 -7.8203,4.6189 -15.4381,8.9006 -6.3385,3.5626 -6.7135,4.0676 -17.8231,24 -1.3795,2.475 -3.5663,6.3 -4.8597,8.5 -1.2933,2.2 -3.1452,5.575 -4.1153,7.5 -0.9701,1.925 -2.0179,3.725 -2.3284,4 -0.3105,0.275 -4.7838,8.15 -9.9408,17.5 -12.626,22.892 -15.4764,26.2392 -18.8663,22.1547 z"
           style="opacity:1;fill:#ffffff;fill-opacity:1;fill-rule:nonzero;stroke:none;stroke-width:1;stroke-linecap:square;stroke-linejoin:miter;stroke-miterlimit:4;stroke-dasharray:none;stroke-opacity:1" />
      </g>
    </g>
  </g>
</svg>
