<?xml version="1.0" encoding="UTF-8" standalone="no"?>
<svg
   xmlns:dc="http://purl.org/dc/elements/1.1/"
   xmlns:cc="http://creativecommons.org/ns#"
   xmlns:rdf="http://www.w3.org/1999/02/22-rdf-syntax-ns#"
   xmlns:svg="http://www.w3.org/2000/svg"
   xmlns="http://www.w3.org/2000/svg"
   version="1.1"
   id="svg5023"
   viewBox="0 0 1680 1050"
   height="1050"
   width="1680">
  <defs
     id="defs5025" />
  <metadata
     id="metadata5028">
    <rdf:RDF>
      <cc:Work
         rdf:about="">
        <dc:format>image/svg+xml</dc:format>
        <dc:type
           rdf:resource="http://purl.org/dc/dcmitype/StillImage" />
        <dc:title></dc:title>
      </cc:Work>
    </rdf:RDF>
  </metadata>
  <g
     transform="translate(0,-2.3621826)"
     id="layer1">
    <g
       style="fill:#2c313b;fill-opacity:0.18000004"
       id="g4467"
       transform="translate(-4560,1000)">
      <path
         style="color:#000000;font-style:normal;font-variant:normal;font-weight:normal;font-stretch:normal;font-size:medium;line-height:normal;font-family:sans-serif;text-indent:0;text-align:start;text-decoration:none;text-decoration-line:none;text-decoration-style:solid;text-decoration-color:#000000;letter-spacing:normal;word-spacing:normal;text-transform:none;direction:ltr;block-progression:tb;writing-mode:lr-tb;baseline-shift:baseline;text-anchor:start;white-space:normal;clip-rule:nonzero;display:inline;overflow:visible;visibility:visible;opacity:1;isolation:auto;mix-blend-mode:normal;color-interpolation:sRGB;color-interpolation-filters:linearRGB;solid-color:#000000;solid-opacity:1;fill:#2c313b;fill-opacity:0.18000004;fill-rule:evenodd;stroke:none;stroke-width:3;stroke-linecap:round;stroke-linejoin:bevel;stroke-miterlimit:4;stroke-dasharray:none;stroke-dashoffset:0;stroke-opacity:1;color-rendering:auto;image-rendering:auto;shape-rendering:auto;text-rendering:auto;enable-background:accumulate"
         d="m 6201.7957,-847.86642 -1.0293,0.34963 -9.0803,7.61965 -6.1778,-0.28127 -0.6504,0.11525 -11.6819,4.92025 -0.3769,0.23049 -3.6895,3.07441 -0.4082,0.53911 -13.2112,29.43751 -97.6188,20.75138 -1.084,0.91608 -5.7247,14.46972 -12.8869,12.89148 -16.1937,0.55864 -5.1367,-12.56139 -0.8184,-0.82036 -16.6233,-6.82859 -4.9903,-12.62974 -0.7617,-0.8067 -4.6095,-2.15249 -0.6094,-0.14063 -18.1351,-0.30862 -1.1757,0.53519 -6.1466,7.32276 -11.9963,3.14278 -26.6099,-9.68032 -1.1719,0.0625 -12.1154,5.91837 -5.4005,-7.02196 -0.9531,-0.5684 -30.7388,-4.9183 -1.6855,1.08992 -1.7365,6.4516 -16.9826,-5.75429 -6.4826,-12.08479 -1.5332,-0.7774 -6.7111,0.95905 0.1172,-1.16804 -0.3535,-1.12508 -1.8457,-2.15248 -1.9708,-0.27346 -5.5332,3.68969 -0.6466,1.00203 -0.9023,5.41832 -2.2149,6.64694 -8.1895,3.69947 -7.0002,-4.48273 -2.2969,1.45713 1.082,8.37751 -5.0684,2.02944 -0.3379,0.18946 -11.9885,8.91662 -0.5957,1.36337 0.7578,7.07664 -6.1485,0.49223 -1.293,0.99224 -1.5019,4.20146 -2.3517,4.44561 -10.6329,1.36337 -8.1272,-5.80703 -2.2793,0.70122 -3.8809,10.53781 -4.8321,-0.72465 -6.965,-2.11929 -1.5918,0.47856 -8.9142,10.76243 -0.2578,0.45706 -5.1583,14.62012 -4.4102,-0.24416 -1.3828,0.75005 -5.4084,9.39517 -2.5136,0 -1.4923,1.34384 -2.6367,25.21261 -5.838,0.50785 -1.2363,0.87506 -10.4514,23.06209 -0.092,0.96881 1.5332,6.3852 -5.506,2.00208 -0.9824,1.50987 0.2793,4.18973 -2.5645,4.87338 -5.4961,1.37313 -0.793,0.50003 -5.84,7.07275 -0.3418,1.05085 0.8653,13.53996 -6.9025,4.14286 -0.7168,1.47276 0.8301,6.63716 -9.9142,9.6276 -0.3536,0.53323 -3.6895,9.53384 0.2324,1.48448 4.5235,5.58826 -2.8164,4.11747 -5.8047,-1.05672 -1.7404,1.77161 1.1036,5.51208 -2.3223,3.25022 -10.4259,1.44932 -1.2931,1.54502 0.2871,7.19384 -4.9472,7.27783 -0.1387,1.42979 4.9199,11.58085 -3.6484,5.83828 -5.131,-1.02741 -1.7051,0.96491 -6.1505,17.13786 -4.4844,0.64067 -0.9961,0.59574 -5.3341,7.25244 -18.93,-6.70162 -0.6719,-0.0762 -12.1408,1.3829 -1.3263,1.3751 -0.7949,10.19794 -3.7578,-0.64457 -1.7501,1.38095 -0.418,6.41645 -7.3165,5.90664 -12.1252,-9.55923 -1.9883,0.11719 -6.3165,6.31683 -9.1818,-4.45342 -1.5625,0.15626 -10.9123,8.30134 -0.4434,1.84582 8.9142,18.45045 0.6407,0.66802 12.1916,6.54536 5.6271,10.95971 1.8691,0.71685 5.2599,-2.00404 13.1935,22.87653 1.127,0.74029 7.9923,0.92389 1.4962,-0.78521 1.9218,-3.60571 0.3223,0.0703 -3.8263,30.6251 0.3067,1.1114 4.8634,6.21722 -5.5451,8.32281 1.1798,2.33024 6.1017,0.27736 19.8655,23.7848 1.2813,0.53323 5.7305,-0.49808 0.6602,3.29514 0.2227,0.53715 1.2285,1.84583 1.9337,0.50198 9.338,-4.7972 0.4687,7.24854 0.6211,1.12117 9.8361,7.07274 0.9493,0.28126 12.0119,-0.58597 14.3029,12.0633 -8.0313,15.2393 -9.7872,2.30289 -0.838,2.38297 7.6838,9.84051 0.748,0.51371 12.426,3.75611 1.7598,6.37737 -20.3304,1.69348 -1.2403,0.87506 -1.5372,3.38303 -0.1054,0.91412 1.5372,7.68802 0.6035,0.92975 7.377,5.22691 0.7403,0.26956 16.969,1.43954 1.9649,12.06722 0.25,0.61918 2.1524,3.07442 0.9981,0.62309 9.836,1.53721 0.1387,0.0156 29.022,1.79504 12.506,21.1479 0.3906,0.43558 3.6896,2.76776 0.5176,0.25002 5.8399,1.53721 1.6856,-0.70709 16.0979,-28.25774 14.9631,-9.03771 11.467,11.18239 0.6816,0.38088 7.2834,1.82238 8.1818,3.21507 6.0059,6.75826 -4.8555,3.31272 -4.7267,-0.78911 -8.1075,-3.90456 -2.0977,0.96295 -1.963,7.28565 -5.1641,2.17593 -0.01,0.004 -6.4552,2.76776 -0.7617,2.02749 11.6818,24.29263 0.752,0.72466 11.5998,5.05893 1.5722,2.24625 -1.1484,8.33453 0.9531,1.60753 8.8713,3.36547 31.5103,14.27439 -1.5801,10.79564 -3.211,1.9767 -10.2365,2.71112 -1.1094,1.31453 -0.6153,6.76413 -0.01,0.13673 0,3.56078 -1.918,3.01388 -0.2305,0.8985 0.3067,4.92024 0.25,0.73833 3.0723,4.61164 0.9219,0.63285 23.3598,5.22691 0.9043,-0.0801 3.6621,-1.5255 10.6838,-3.96901 13.2248,-3.90847 10.4494,0.59575 9.8635,1.19734 15.7697,7.27979 0.8887,0.11523 5.2267,-0.92193 0.1152,-0.0254 7.8557,-2.03724 49.0555,17.374197 0.9472,0.0176 14.6213,-4.570617 10.3127,-1.21297 0.5274,-0.16407 15.0393,-7.96538 24.2368,10.475307 1.0605,0.0488 27.5649,-8.990827 9.8361,6.94577 1.2812,0.21486 11.1389,-3.22483 24.3852,11.444127 1.2246,0.0234 44.8777,-19.063767 0.5645,-0.41995 35.7057,-42.73919 89.5111,-32.69946 17.2484,-1.81652 20.1,0.29103 3.0195,7.96538 1.4024,0.96686 5.2188,0 7.2462,7.24853 1.2247,0.42972 22.4378,-2.45915 1.0469,-0.60355 2.2638,-3.0881 9.8341,11.47928 1.3594,0.50785 8.299,-1.23055 0.5293,-0.18556 7.9922,-4.61164 0.4298,-0.37307 1.918,-2.44157 11.8518,23.71057 0.9218,0.76958 7.3009,2.12905 11.9162,4.89096 0.1407,0.0488 11.3732,3.38305 0.4277,0.0625 18.4437,0 0.1562,-0.008 17.5218,-1.84582 1.3321,-1.30868 1.8321,-14.9678 3.6621,-14.04781 0.049,-0.35354 0.3067,-19.06378 0.3086,-15.67879 -0.082,-0.51565 -3.3808,-9.8405 -0.4356,-0.64653 -4.5196,-3.91627 -2.7931,-3.35375 -0.8008,-2.80292 2.5763,-1.28915 0.8086,-1.09383 0.457,-2.74236 2.4532,-0.66997 0.789,-0.52543 8.6077,-11.07105 0.1074,-0.15626 12.9103,-21.83154 0.096,-0.19727 10.9495,-26.77132 15.8342,-15.54011 15.301,-5.4027 14.6604,-3.80299 0,0.0898 -0.5938,3.5686 1.6779,1.73253 9.2208,-1.23055 1.1543,-0.83794 7.3771,-15.37408 0.1465,-0.6602 -0.3027,-38.0377 2.5703,-4.57062 0.1777,-0.94342 -1.8437,-13.22158 -0.062,-0.2676 -6.1486,-18.4485 -0.2363,-0.44534 -7.3772,-9.53189 -0.7441,-0.51567 -15.9846,-4.91829 -0.582,-0.0606 -19.6723,1.84387 -0.6972,0.25002 -19.6273,13.19033 -10.7111,6.12346 -0.7325,1.04109 -0.8847,5.01401 -0.8887,1.77941 -16.9515,-4.59796 -1.2929,2.64862 2.1054,1.57822 -3.6524,2.79511 -0.3281,2.03724 3.0118,4.40265 -6.2286,3.0002 -39.7019,-10.45188 -9.5314,-18.47193 -0.6835,-0.66411 -7.5335,-3.61743 -6.6993,-5.30504 -0.2871,-9.44985 -1.7676,-1.43173 -2.4336,0.44339 -2.8946,-4.13505 7.0763,-4.98275 0.6055,-1.5294 -3.6895,-17.83518 -0.2559,-0.57817 -2.459,-3.38303 -0.3418,-0.33792 -1.5235,-1.08796 0,-14.60254 -0.047,-0.37307 -6.3927,-24.97628 0.582,-7.87748 3.0196,-9.36195 0.068,-0.35354 0.3066,-4.30498 -0.1543,-0.77739 -4.1876,-8.37752 9.254,-11.86017 0.098,-1.70519 -2.957,-4.84212 5.7989,-12.1805 0,-1.28524 -5.0645,-10.72533 1.209,-21.45065 -0.1836,-0.80865 -17.971,-32.60179 -0.9024,-16.56947 -0.1269,-0.52737 -1.2305,-2.76777 -0.5234,-0.62895 -5.1876,-3.55102 0,-2.59001 -1.9414,-1.4337 -3.3204,1.02156 -24.5434,-16.17686 1.7402,-4.72493 -0.045,-1.14656 -1.8437,-3.99831 -0.3731,-0.49808 -22.3031,-19.5599 -3.9688,-5.67226 -1.1954,-14.04977 -0.9863,-1.28329 -11.3166,-4.06472 -4.0664,-11.62383 -0.3828,-0.59184 -18.098,-17.18473 -1.7208,-1.87904 2.9181,-0.85748 1.0722,-1.53916 -0.3066,-4.61164 -0.3496,-0.86725 -7.8165,-9.26624 0.7539,-3.26584 -1.125,-1.79895 -2.8751,-0.66411 -0.2656,-7.46144 -0.9805,-1.3536 -4.8595,-1.79114 0,-10.94604 -1.0058,-1.4161 -6.1427,-2.13687 -0.2324,-3.01778 -0.4766,-0.9864 -7.7893,-7.21337 0.2754,-6.07071 -1.2148,-1.54113 -4.9767,-0.95709 0.1485,-0.13087 -0.066,-2.31265 -16.5978,-12.91493 -0.8574,-0.31447 -21.2094,-0.92194 z m 0.4531,3.02364 20.1488,0.87506 14.7874,11.50663 -1.0918,0.95514 0.7031,2.60174 6.7188,1.29109 -0.248,5.46912 0.4785,1.16805 7.8673,7.2876 0.2637,3.41233 1.002,1.30087 6.0626,2.10952 0,10.92651 0.9824,1.4083 4.8947,1.80286 0.2715,7.60402 1.1621,1.40829 2.5351,0.58598 -0.5859,2.53533 0.3144,1.30478 7.9826,9.46352 0.1953,2.92011 -4.0723,1.1993 -0.6836,2.45329 3.3828,3.6897 0.072,0.0742 17.8733,16.96988 4.1818,11.95588 0.9101,0.91608 11.0823,3.98074 1.1464,13.49113 0.2657,0.73443 4.3048,6.14884 0.2382,0.2676 22.1997,19.47005 1.4511,3.14474 -1.9376,5.25817 0.5841,1.7716 26.1274,17.2199 1.2656,0.17971 2.0547,-0.63091 0,1.3497 0.6524,1.23837 5.4903,3.75806 0.9454,2.12514 0.9062,16.63783 0.1836,0.64263 17.928,32.52365 -1.205,21.39987 0.1406,0.72466 4.9219,10.42648 -5.8419,12.2723 0.074,1.42783 2.8399,4.64875 -9.1974,11.7879 -0.1582,1.59385 4.4258,8.85607 -0.2656,3.71509 -3.0176,9.36 -0.068,0.34963 -0.6153,8.30134 0.043,0.48245 6.4083,25.03097 0,15.18656 0.629,1.22079 1.9532,1.39462 2.125,2.92402 3.4239,16.55385 -7.4943,5.27574 -0.3652,2.08803 4.3027,6.14885 1.4981,0.61528 1.6661,-0.30275 0.2539,8.40485 0.5684,1.13093 7.377,5.84219 0.2832,0.1758 7.2306,3.47289 9.6057,18.61842 0.9511,0.76177 40.8816,10.76244 1.0332,-0.0996 8.2989,-3.99636 0.588,-2.19937 -3.1934,-4.66828 4.0958,-3.13302 0,-1.15633 13.1466,3.56469 1.7344,-0.77544 1.5371,-3.07638 0.1367,-0.41018 0.799,-4.53351 10.1485,-5.80116 0.092,-0.0566 19.3558,-13.01064 18.9965,-1.78137 15.2443,4.69368 6.9298,8.95373 6.0235,18.07737 1.7559,12.58483 -2.5176,4.47686 -0.1933,0.74809 0.3046,38.08849 -6.8751,14.33104 -6.4083,0.85553 0.2813,-1.68958 0.021,-0.2461 0,-2.15249 -1.877,-1.45322 -16.5979,4.30497 -0.1231,0.0371 -15.6761,5.53552 -0.5527,0.34377 -16.2912,15.98936 -0.338,0.50393 -11.0235,26.95688 -12.8069,21.65575 -8.2404,10.60032 -2.8985,0.78911 -1.086,1.20125 -0.4883,2.9377 -3.0058,1.50205 -0.7715,1.75403 1.2305,4.30498 0.289,0.5469 3.0743,3.69166 0.17,0.17188 4.3046,3.73463 3.1642,9.2057 -0.3008,15.41704 0,0.004 -0.3047,18.88602 -3.6446,13.96968 -0.037,0.19534 -1.6992,13.88374 -16.2562,1.71105 -18.1448,0 -11.092,-3.29905 -11.9182,-4.89096 -0.1504,-0.0527 -6.7481,-1.96888 -12.6174,-25.24193 -2.5215,-0.25783 -3.2013,4.07841 -7.4942,4.3245 -7.1974,1.06648 -10.5256,-12.28598 -2.3496,0.0898 -2.9903,4.08035 -21.0667,2.30875 -7.176,-7.17821 -1.0605,-0.43949 -4.8068,0 -3.0136,-7.94779 -1.3809,-0.96882 -21.2094,-0.30666 -0.1777,0.008 -17.5218,1.84388 -0.3574,0.084 -90.064,32.90064 -0.6348,0.4473 -35.733,42.77044 -43.9285,18.661397 -24.2914,-11.399197 -1.0547,-0.084 -10.9865,3.18185 -9.8615,-6.96335 -1.3301,-0.20119 -27.7406,9.04944 -24.3774,-10.53782 -1.297,0.0527 -15.4279,8.17046 -10.1721,1.19735 -0.2734,0.0586 -14.2775,4.461237 -49.0165,-17.358577 -0.8769,-0.0391 -8.2424,2.13882 -4.7052,0.83013 -15.5568,-7.18212 -0.4473,-0.12892 -10.1447,-1.2286 -0.094,-0.01 -10.7599,-0.61528 -0.5098,0.0605 -13.5256,3.99636 -0.098,0.0332 -10.758,3.99636 -0.055,0.0215 -3.248,1.35555 -22.309,-4.99251 -2.5176,-3.77564 -0.252,-4.03152 1.8907,-2.96895 0.2344,-0.80671 0,-3.92799 0.5136,-5.65272 9.4357,-2.49821 0.4024,-0.1719 3.9961,-2.46109 0.6973,-1.06062 1.8458,-12.60631 -0.8653,-1.58409 -32.5845,-14.7588 -0.086,-0.0352 -7.7969,-2.95919 1.0664,-7.73488 -0.2578,-1.06453 -2.1504,-3.07442 -0.631,-0.51567 -11.4767,-5.00423 -10.7599,-22.37846 5.0118,-2.14662 5.836,-2.45915 0.8653,-0.99225 1.6816,-6.24847 6.67,3.21311 0.4043,0.12696 5.5333,0.92389 1.0918,-0.24025 6.7619,-4.61359 0.2773,-2.23453 -7.379,-8.30328 -0.5723,-0.39847 -8.6055,-3.38304 -0.1856,-0.0586 -6.9845,-1.74816 -12.0041,-11.70782 -1.8223,-0.21094 -16.2913,9.8405 -0.5294,0.54105 -15.7209,27.5956 -4.4415,-1.17 -3.2148,-2.41227 -12.7581,-21.57372 -1.1992,-0.73442 -29.7447,-1.83997 -9.1368,-1.42782 -1.5879,-2.27165 -2.0977,-12.88367 -1.3536,-1.25399 -17.7288,-1.50205 -6.5567,-4.64679 -1.3262,-6.6274 0.9746,-2.14077 21.2542,-1.77161 1.3204,-1.89465 -2.459,-8.91661 -1.0118,-1.03718 -12.7619,-3.85964 -5.9513,-7.61965 8.172,-1.92199 0.9825,-0.75983 8.9142,-16.91324 -0.3594,-1.84582 -15.676,-13.22158 -1.0411,-0.3516 -12.0783,0.58989 -8.836,-6.35394 -0.5684,-8.82481 -2.1837,-1.23642 -10.1817,5.23082 -0.3223,-0.4844 -0.8634,-4.32256 -1.6015,-1.1993 -6.2892,0.54692 -19.7854,-23.69103 -1.084,-0.53715 -4.1095,-0.18556 4.6739,-7.0161 -0.066,-1.75598 -5.1485,-6.58051 3.92,-31.36148 -1.1642,-1.64855 -2.7656,-0.61527 -1.6504,0.75786 -1.9786,3.71119 -6.2267,-0.7188 -13.4552,-23.32969 -1.8321,-0.65238 -5.2012,1.9806 -5.2267,-10.18232 -0.625,-0.63676 -12.1721,-6.53364 -8.17,-16.90738 9.2032,-7.00047 9.3147,4.51788 1.7148,-0.28908 6.1271,-6.12932 12.0178,9.47525 1.871,-0.0117 8.76,-7.07274 0.5547,-1.06843 0.3535,-5.41052 3.7363,0.64067 1.7501,-1.36142 0.8243,-10.60423 10.5685,-1.20516 19.6546,6.9575 1.7071,-0.52542 5.6211,-7.64114 4.758,-0.67973 1.1992,-0.97858 6.0177,-16.77066 4.879,0.97663 1.5664,-0.67583 4.6094,-7.3794 0.1094,-1.3829 -4.9063,-11.54569 4.7657,-7.01024 0.2578,-0.90436 -0.2519,-6.32854 9.7188,-1.3497 1.0138,-0.61333 3.0742,-4.30497 0.25,-1.1661 -0.7949,-3.98464 4.588,0.83404 1.5078,-0.62894 3.9962,-5.84219 -0.072,-1.78918 -4.6798,-5.78359 3.2559,-8.41463 10.217,-9.91863 0.4433,-1.26376 -0.8008,-6.40863 6.8459,-4.10965 0.7246,-1.3829 -0.8828,-13.85835 5.1465,-6.23479 5.6701,-1.41807 0.9628,-0.75591 3.0744,-5.84218 0.1699,-0.79888 -0.2324,-3.48852 5.7032,-2.07436 0.9453,-1.75988 -1.7247,-7.18603 9.8771,-21.79442 6.1955,-0.53911 1.3613,-1.33798 2.627,-25.09932 2.0293,0 1.3008,-0.75201 5.379,-9.34633 4.6115,0.25588 1.496,-0.99812 5.4455,-15.43072 8.1055,-9.78775 6.1154,1.86144 0.2148,0.0488 6.1467,0.92194 1.6309,-0.96491 3.623,-9.83855 7.0061,5.0062 1.0644,0.26759 11.9865,-1.53721 1.1348,-0.78716 2.7676,-5.22691 0.086,-0.19728 1.2111,-3.39085 6.7188,-0.53715 1.3711,-1.65636 -0.8301,-7.75638 11.1428,-8.28961 5.9669,-2.38884 0.9297,-1.58409 -0.8184,-6.34222 4.9766,3.18576 1.4278,0.10353 9.5275,-4.30498 0.8066,-0.89264 2.4591,-7.3794 0.057,-0.22853 0.8145,-4.8929 3.8868,-2.59198 0.5625,0.6563 -0.2441,2.43571 1.705,1.63488 7.5685,-1.0821 6.2657,11.68242 0.8399,0.71294 19.0589,6.4555 1.9298,-1.02936 1.8007,-6.68991 28.815,4.61164 5.7852,7.52199 1.8457,0.43362 12.6467,-6.17814 26.4497,9.62173 0.8926,0.043 12.9104,-3.38304 0.7695,-0.48636 5.9943,-7.14111 17.1018,0.29104 3.7813,1.76379 5.0059,12.66686 0.8242,0.83599 16.6332,6.83445 5.295,12.94812 1.4394,0.9317 17.8285,-0.61527 1.0097,-0.43948 13.5257,-13.52825 0.334,-0.50979 5.5431,-14.01071 97.5758,-20.74162 1.0566,-0.85358 13.383,-29.81839 3.2501,-2.70917 11.1622,-4.70148 6.4241,0.29299 1.0332,-0.34964 9.0821,-7.61965 z"
         id="path4330" />
      <g
         id="g4438"
         transform="translate(5977.304,-586.3715)"
         style="fill:#2c313b;fill-opacity:0.18000004;stroke-width:2;stroke-miterlimit:4;stroke-dasharray:none">
        <path
           style="fill:#2c313b;fill-opacity:0.18000004;stroke-width:2;stroke-miterlimit:4;stroke-dasharray:none"
           d="M 16,31.3 15.6,31 C 15.1,30.7 3.7,22.9 3.7,13 3.6,6.2 9.2,0.7 16,0.7 22.8,0.7 28.4,6.2 28.4,13 28.4,22.9 17,30.7 16.5,31 L 16,31.3 Z M 16,2.2 C 10,2.2 5.1,7 5.1,13 5.1,21.1 13.9,28 15.9,29.5 18,28 26.9,21.1 26.9,13 26.9,7 22,2.2 16,2.2 Z"
           id="path4440" />
      </g>
      <g
         id="g4442"
         transform="translate(5979.679,-582.4965)"
         style="fill:#2c313b;fill-opacity:0.18000004;stroke-width:2;stroke-miterlimit:4;stroke-dasharray:none">
        <path
           style="fill:#2c313b;fill-opacity:0.18000004;stroke-width:2;stroke-miterlimit:4;stroke-dasharray:none"
           d="m 13.625,16.825 c -4.3,0 -7.7,-3.5 -7.7,-7.7 0,-4.3 3.5,-7.7 7.7,-7.7 4.3,0 7.7,3.5 7.7,7.7 0,4.3 -3.4,7.7 -7.7,7.7 z m 0,-13.9 c -3.4,0 -6.2,2.8 -6.2,6.2 0,3.4 2.8,6.2 6.2,6.2 3.4,0 6.2,-2.8 6.2,-6.2 0,-3.4 -2.8,-6.2 -6.2,-6.2 z"
           id="path4444" />
      </g>
    </g>
  </g>
</svg>
