<?xml version="1.0" encoding="UTF-8" standalone="no"?>
<svg
   xmlns:dc="http://purl.org/dc/elements/1.1/"
   xmlns:cc="http://creativecommons.org/ns#"
   xmlns:rdf="http://www.w3.org/1999/02/22-rdf-syntax-ns#"
   xmlns:svg="http://www.w3.org/2000/svg"
   xmlns="http://www.w3.org/2000/svg"
   version="1.1"
   id="svg7135"
   viewBox="0 0 260.0293 450"
   height="127mm"
   width="73.386047mm">
  <defs
     id="defs7137">
    <filter
       id="filter4477-7-0"
       style="color-interpolation-filters:sRGB">
      <feFlood
         id="feFlood4479-7-1"
         result="flood"
         flood-color="rgb(0,0,0)"
         flood-opacity="0.10000000000000001" />
      <feComposite
         id="feComposite4481-7-3"
         result="composite1"
         operator="in"
         in2="SourceGraphic"
         in="flood" />
      <feGaussianBlur
         id="feGaussianBlur4483-1-2"
         result="blur"
         stdDeviation="0"
         in="composite1" />
      <feOffset
         id="feOffset4485-9-9"
         result="offset"
         dy="6"
         dx="6" />
      <feComposite
         id="feComposite4487-6-2"
         result="composite2"
         operator="over"
         in2="offset"
         in="SourceGraphic" />
    </filter>
  </defs>
  <metadata
     id="metadata7140">
    <rdf:RDF>
      <cc:Work
         rdf:about="">
        <dc:format>image/svg+xml</dc:format>
        <dc:type
           rdf:resource="http://purl.org/dc/dcmitype/StillImage" />
        <dc:title></dc:title>
      </cc:Work>
    </rdf:RDF>
  </metadata>
  <g
     transform="translate(15.7289,-535.93363)"
     id="layer1">
    <g
       transform="translate(-3175.5236,308.07143)"
       id="g4749">
      <rect
         style="opacity:1;fill:#fcfcfc;fill-opacity:1;stroke:none;stroke-width:1;stroke-linecap:square;stroke-miterlimit:4;stroke-dasharray:none;stroke-opacity:1"
         id="rect4221-0-6-1"
         width="300"
         height="500"
         x="3820"
         y="-722.63782"
         transform="matrix(0.86666667,0,0,0.9,-150.85732,878.23624)" />
      <path
         style="fill:#d2e6b9;fill-opacity:1;fill-rule:evenodd;stroke:none;stroke-width:1px;stroke-linecap:butt;stroke-linejoin:miter;stroke-opacity:1"
         d="m 3159.7947,256.86707 7.4376,7.15946 8.6595,-7.15946 8.3731,7.15946 8.1182,-7.15946 7.6409,7.15946 8.0864,-7.15946 7.9592,7.15946 8.4686,-7.15946 7.9591,7.15946 8.0865,-7.15946 8.2775,7.15946 8.3412,-7.15946 7.8318,7.15946 8.3412,-7.15946 8.1502,7.15946 8.1502,-7.15946 7.8318,7.15946 8.3412,-7.15946 7.7045,7.15946 8.8505,-7.15946 8.0228,7.15946 7.7682,-7.15946 8.1501,7.15946 8.6596,-7.15946 7.8955,7.15946 8.2775,-7.15946 7.5135,7.15946 8.5959,-7.15946 7.9591,7.15946 8.3412,-7.15946 7.8318,7.15946 8.4049,-7.15946 0,8.15138 -8.2776,7.40497 -8.0228,-7.40497 -8.0228,7.40497 -8.0229,-7.40497 -8.7868,7.40497 -7.8319,-7.40497 -7.8955,7.40497 -8.1501,-7.40497 -8.2138,7.40497 -8.2776,-7.40497 -7.8955,7.40497 -8.0228,-7.40497 -8.9143,7.40497 -7.8955,-7.40497 -8.1501,7.40497 -7.9591,-7.40497 -8.0229,7.40497 -8.0865,-7.40497 -8.5959,7.40497 -7.5771,-7.40497 -8.5959,7.40497 -7.7044,-7.40497 -7.6408,7.40497 -8.6595,-7.40497 -8.4687,7.40497 -7.8954,-7.40497 -8.1502,7.40497 -7.6408,-7.40497 -8.2792,7.40497 -8.1943,-7.40497 -8.5996,7.40497 -7.544,-7.05142 z"
         id="path4577" />
      <path
         style="fill:#fcf49c;fill-opacity:1;fill-rule:evenodd;stroke:none;stroke-width:1px;stroke-linecap:butt;stroke-linejoin:miter;stroke-opacity:1"
         d="m 3159.7947,272.63949 7.4376,7.15946 8.6595,-7.15946 8.3731,7.15946 8.1182,-7.15946 7.6409,7.15946 8.0864,-7.15946 7.9592,7.15946 8.4686,-7.15946 7.9591,7.15946 8.0865,-7.15946 8.2775,7.15946 8.3412,-7.15946 7.8318,7.15946 8.3412,-7.15946 8.1502,7.15946 8.1502,-7.15946 7.8318,7.15946 8.3412,-7.15946 7.7045,7.15946 8.8505,-7.15946 8.0228,7.15946 7.7682,-7.15946 8.1501,7.15946 8.6596,-7.15946 7.8955,7.15946 8.2775,-7.15946 7.5135,7.15946 8.5959,-7.15946 7.9591,7.15946 8.3412,-7.15946 7.8318,7.15946 8.4049,-7.15946 0,8.15138 -8.2776,7.40497 -8.0228,-7.40497 -8.0228,7.40497 -8.0229,-7.40497 -8.7868,7.40497 -7.8319,-7.40497 -7.8955,7.40497 -8.1501,-7.40497 -8.2138,7.40497 -8.2776,-7.40497 -7.8955,7.40497 -8.0228,-7.40497 -8.9143,7.40497 -7.8955,-7.40497 -8.1501,7.40497 -7.9591,-7.40497 -8.0229,7.40497 -8.0865,-7.40497 -8.5959,7.40497 -7.5771,-7.40497 -8.5959,7.40497 -7.7044,-7.40497 -7.6408,7.40497 -8.6595,-7.40497 -8.4687,7.40497 -7.8954,-7.40497 -8.1502,7.40497 -7.6408,-7.40497 -8.2792,7.40497 -8.1943,-7.40497 -8.5996,7.40497 -7.544,-7.05142 z"
         id="path4577-9" />
      <path
         style="fill:#f8bba8;fill-opacity:1;fill-rule:evenodd;stroke:none;stroke-width:1px;stroke-linecap:butt;stroke-linejoin:miter;stroke-opacity:1"
         d="m 3159.7947,302.36742 7.4376,7.15946 8.6595,-7.15946 8.3731,7.15946 8.1182,-7.15946 7.6409,7.15946 8.0864,-7.15946 7.9592,7.15946 8.4686,-7.15946 7.9591,7.15946 8.0865,-7.15946 8.2775,7.15946 8.3412,-7.15946 7.8318,7.15946 8.3412,-7.15946 8.1502,7.15946 8.1502,-7.15946 7.8318,7.15946 8.3412,-7.15946 7.7045,7.15946 8.8505,-7.15946 8.0228,7.15946 7.7682,-7.15946 8.1501,7.15946 8.6596,-7.15946 7.8955,7.15946 8.2775,-7.15946 7.5135,7.15946 8.5959,-7.15946 7.9591,7.15946 8.3412,-7.15946 7.8318,7.15946 8.4049,-7.15946 0,8.15138 -8.2776,7.40497 -8.0228,-7.40497 -8.0228,7.40497 -8.0229,-7.40497 -8.7868,7.40497 -7.8319,-7.40497 -7.8955,7.40497 -8.1501,-7.40497 -8.2138,7.40497 -8.2776,-7.40497 -7.8955,7.40497 -8.0228,-7.40497 -8.9143,7.40497 -7.8955,-7.40497 -8.1501,7.40497 -7.9591,-7.40497 -8.0229,7.40497 -8.0865,-7.40497 -8.5959,7.40497 -7.5771,-7.40497 -8.5959,7.40497 -7.7044,-7.40497 -7.6408,7.40497 -8.6595,-7.40497 -8.4687,7.40497 -7.8954,-7.40497 -8.1502,7.40497 -7.6408,-7.40497 -8.2792,7.40497 -8.1943,-7.40497 -8.5996,7.40497 -7.544,-7.05142 z"
         id="path4577-6" />
      <path
         style="fill:#abe0df;fill-opacity:1;fill-rule:evenodd;stroke:none;stroke-width:1px;stroke-linecap:butt;stroke-linejoin:miter;stroke-opacity:1"
         d="m 3159.7947,318.13984 7.4376,7.15946 8.6595,-7.15946 8.3731,7.15946 8.1182,-7.15946 7.6409,7.15946 8.0864,-7.15946 7.9592,7.15946 8.4686,-7.15946 7.9591,7.15946 8.0865,-7.15946 8.2775,7.15946 8.3412,-7.15946 7.8318,7.15946 8.3412,-7.15946 8.1502,7.15946 8.1502,-7.15946 7.8318,7.15946 8.3412,-7.15946 7.7045,7.15946 8.8505,-7.15946 8.0228,7.15946 7.7682,-7.15946 8.1501,7.15946 8.6596,-7.15946 7.8955,7.15946 8.2775,-7.15946 7.5135,7.15946 8.5959,-7.15946 7.9591,7.15946 8.3412,-7.15946 7.8318,7.15946 8.4049,-7.15946 0,8.15138 -8.2776,7.40497 -8.0228,-7.40497 -8.0228,7.40497 -8.0229,-7.40497 -8.7868,7.40497 -7.8319,-7.40497 -7.8955,7.40497 -8.1501,-7.40497 -8.2138,7.40497 -8.2776,-7.40497 -7.8955,7.40497 -8.0228,-7.40497 -8.9143,7.40497 -7.8955,-7.40497 -8.1501,7.40497 -7.9591,-7.40497 -8.0229,7.40497 -8.0865,-7.40497 -8.5959,7.40497 -7.5771,-7.40497 -8.5959,7.40497 -7.7044,-7.40497 -7.6408,7.40497 -8.6595,-7.40497 -8.4687,7.40497 -7.8954,-7.40497 -8.1502,7.40497 -7.6408,-7.40497 -8.2792,7.40497 -8.1943,-7.40497 -8.5996,7.40497 -7.544,-7.05142 z"
         id="path4577-9-5" />
      <path
         style="fill:#f59fc1;fill-opacity:1;fill-rule:evenodd;stroke:none;stroke-width:1px;stroke-linecap:butt;stroke-linejoin:miter;stroke-opacity:1"
         d="m 3159.7947,347.32272 7.4376,7.15946 8.6595,-7.15946 8.3731,7.15946 8.1182,-7.15946 7.6409,7.15946 8.0864,-7.15946 7.9592,7.15946 8.4686,-7.15946 7.9591,7.15946 8.0865,-7.15946 8.2775,7.15946 8.3412,-7.15946 7.8318,7.15946 8.3412,-7.15946 8.1502,7.15946 8.1502,-7.15946 7.8318,7.15946 8.3412,-7.15946 7.7045,7.15946 8.8505,-7.15946 8.0228,7.15946 7.7682,-7.15946 8.1501,7.15946 8.6596,-7.15946 7.8955,7.15946 8.2775,-7.15946 7.5135,7.15946 8.5959,-7.15946 7.9591,7.15946 8.3412,-7.15946 7.8318,7.15946 8.4049,-7.15946 0,8.15138 -8.2776,7.40497 -8.0228,-7.40497 -8.0228,7.40497 -8.0229,-7.40497 -8.7868,7.40497 -7.8319,-7.40497 -7.8955,7.40497 -8.1501,-7.40497 -8.2138,7.40497 -8.2776,-7.40497 -7.8955,7.40497 -8.0228,-7.40497 -8.9143,7.40497 -7.8955,-7.40497 -8.1501,7.40497 -7.9591,-7.40497 -8.0229,7.40497 -8.0865,-7.40497 -8.5959,7.40497 -7.5771,-7.40497 -8.5959,7.40497 -7.7044,-7.40497 -7.6408,7.40497 -8.6595,-7.40497 -8.4687,7.40497 -7.8954,-7.40497 -8.1502,7.40497 -7.6408,-7.40497 -8.2792,7.40497 -8.1943,-7.40497 -8.5996,7.40497 -7.544,-7.05142 z"
         id="path4577-3" />
      <path
         style="fill:#f0b8ca;fill-opacity:1;fill-rule:evenodd;stroke:none;stroke-width:1px;stroke-linecap:butt;stroke-linejoin:miter;stroke-opacity:1"
         d="m 3159.7947,363.09514 7.4376,7.15946 8.6595,-7.15946 8.3731,7.15946 8.1182,-7.15946 7.6409,7.15946 8.0864,-7.15946 7.9592,7.15946 8.4686,-7.15946 7.9591,7.15946 8.0865,-7.15946 8.2775,7.15946 8.3412,-7.15946 7.8318,7.15946 8.3412,-7.15946 8.1502,7.15946 8.1502,-7.15946 7.8318,7.15946 8.3412,-7.15946 7.7045,7.15946 8.8505,-7.15946 8.0228,7.15946 7.7682,-7.15946 8.1501,7.15946 8.6596,-7.15946 7.8955,7.15946 8.2775,-7.15946 7.5135,7.15946 8.5959,-7.15946 7.9591,7.15946 8.3412,-7.15946 7.8318,7.15946 8.4049,-7.15946 0,8.15138 -8.2776,7.40497 -8.0228,-7.40497 -8.0228,7.40497 -8.0229,-7.40497 -8.7868,7.40497 -7.8319,-7.40497 -7.8955,7.40497 -8.1501,-7.40497 -8.2138,7.40497 -8.2776,-7.40497 -7.8955,7.40497 -8.0228,-7.40497 -8.9143,7.40497 -7.8955,-7.40497 -8.1501,7.40497 -7.9591,-7.40497 -8.0229,7.40497 -8.0865,-7.40497 -8.5959,7.40497 -7.5771,-7.40497 -8.5959,7.40497 -7.7044,-7.40497 -7.6408,7.40497 -8.6595,-7.40497 -8.4687,7.40497 -7.8954,-7.40497 -8.1502,7.40497 -7.6408,-7.40497 -8.2792,7.40497 -8.1943,-7.40497 -8.5996,7.40497 -7.544,-7.05142 z"
         id="path4577-9-9" />
      <path
         style="fill:#a5dcb2;fill-opacity:1;fill-rule:evenodd;stroke:none;stroke-width:1px;stroke-linecap:butt;stroke-linejoin:miter;stroke-opacity:1"
         d="m 3159.7947,392.82307 7.4376,7.15946 8.6595,-7.15946 8.3731,7.15946 8.1182,-7.15946 7.6409,7.15946 8.0864,-7.15946 7.9592,7.15946 8.4686,-7.15946 7.9591,7.15946 8.0865,-7.15946 8.2775,7.15946 8.3412,-7.15946 7.8318,7.15946 8.3412,-7.15946 8.1502,7.15946 8.1502,-7.15946 7.8318,7.15946 8.3412,-7.15946 7.7045,7.15946 8.8505,-7.15946 8.0228,7.15946 7.7682,-7.15946 8.1501,7.15946 8.6596,-7.15946 7.8955,7.15946 8.2775,-7.15946 7.5135,7.15946 8.5959,-7.15946 7.9591,7.15946 8.3412,-7.15946 7.8318,7.15946 8.4049,-7.15946 0,8.15138 -8.2776,7.40497 -8.0228,-7.40497 -8.0228,7.40497 -8.0229,-7.40497 -8.7868,7.40497 -7.8319,-7.40497 -7.8955,7.40497 -8.1501,-7.40497 -8.2138,7.40497 -8.2776,-7.40497 -7.8955,7.40497 -8.0228,-7.40497 -8.9143,7.40497 -7.8955,-7.40497 -8.1501,7.40497 -7.9591,-7.40497 -8.0229,7.40497 -8.0865,-7.40497 -8.5959,7.40497 -7.5771,-7.40497 -8.5959,7.40497 -7.7044,-7.40497 -7.6408,7.40497 -8.6595,-7.40497 -8.4687,7.40497 -7.8954,-7.40497 -8.1502,7.40497 -7.6408,-7.40497 -8.2792,7.40497 -8.1943,-7.40497 -8.5996,7.40497 -7.544,-7.05142 z"
         id="path4577-6-1" />
      <path
         style="fill:#a1c0da;fill-opacity:1;fill-rule:evenodd;stroke:none;stroke-width:1px;stroke-linecap:butt;stroke-linejoin:miter;stroke-opacity:1"
         d="m 3159.7947,408.59549 7.4376,7.15946 8.6595,-7.15946 8.3731,7.15946 8.1182,-7.15946 7.6409,7.15946 8.0864,-7.15946 7.9592,7.15946 8.4686,-7.15946 7.9591,7.15946 8.0865,-7.15946 8.2775,7.15946 8.3412,-7.15946 7.8318,7.15946 8.3412,-7.15946 8.1502,7.15946 8.1502,-7.15946 7.8318,7.15946 8.3412,-7.15946 7.7045,7.15946 8.8505,-7.15946 8.0228,7.15946 7.7682,-7.15946 8.1501,7.15946 8.6596,-7.15946 7.8955,7.15946 8.2775,-7.15946 7.5135,7.15946 8.5959,-7.15946 7.9591,7.15946 8.3412,-7.15946 7.8318,7.15946 8.4049,-7.15946 0,8.15138 -8.2776,7.40497 -8.0228,-7.40497 -8.0228,7.40497 -8.0229,-7.40497 -8.7868,7.40497 -7.8319,-7.40497 -7.8955,7.40497 -8.1501,-7.40497 -8.2138,7.40497 -8.2776,-7.40497 -7.8955,7.40497 -8.0228,-7.40497 -8.9143,7.40497 -7.8955,-7.40497 -8.1501,7.40497 -7.9591,-7.40497 -8.0229,7.40497 -8.0865,-7.40497 -8.5959,7.40497 -7.5771,-7.40497 -8.5959,7.40497 -7.7044,-7.40497 -7.6408,7.40497 -8.6595,-7.40497 -8.4687,7.40497 -7.8954,-7.40497 -8.1502,7.40497 -7.6408,-7.40497 -8.2792,7.40497 -8.1943,-7.40497 -8.5996,7.40497 -7.544,-7.05142 z"
         id="path4577-9-5-1" />
      <path
         style="fill:#fae6d3;fill-opacity:1;fill-rule:evenodd;stroke:none;stroke-width:1px;stroke-linecap:butt;stroke-linejoin:miter;stroke-opacity:1"
         d="m 3159.7947,437.65562 7.4376,7.15946 8.6595,-7.15946 8.3731,7.15946 8.1182,-7.15946 7.6409,7.15946 8.0864,-7.15946 7.9592,7.15946 8.4686,-7.15946 7.9591,7.15946 8.0865,-7.15946 8.2775,7.15946 8.3412,-7.15946 7.8318,7.15946 8.3412,-7.15946 8.1502,7.15946 8.1502,-7.15946 7.8318,7.15946 8.3412,-7.15946 7.7045,7.15946 8.8505,-7.15946 8.0228,7.15946 7.7682,-7.15946 8.1501,7.15946 8.6596,-7.15946 7.8955,7.15946 8.2775,-7.15946 7.5135,7.15946 8.5959,-7.15946 7.9591,7.15946 8.3412,-7.15946 7.8318,7.15946 8.4049,-7.15946 0,8.15138 -8.2776,7.40497 -8.0228,-7.40497 -8.0228,7.40497 -8.0229,-7.40497 -8.7868,7.40497 -7.8319,-7.40497 -7.8955,7.40497 -8.1501,-7.40497 -8.2138,7.40497 -8.2776,-7.40497 -7.8955,7.40497 -8.0228,-7.40497 -8.9143,7.40497 -7.8955,-7.40497 -8.1501,7.40497 -7.9591,-7.40497 -8.0229,7.40497 -8.0865,-7.40497 -8.5959,7.40497 -7.5771,-7.40497 -8.5959,7.40497 -7.7044,-7.40497 -7.6408,7.40497 -8.6595,-7.40497 -8.4687,7.40497 -7.8954,-7.40497 -8.1502,7.40497 -7.6408,-7.40497 -8.2792,7.40497 -8.1943,-7.40497 -8.5996,7.40497 -7.544,-7.05142 z"
         id="path4577-7" />
      <path
         style="fill:#c6b9d9;fill-opacity:1;fill-rule:evenodd;stroke:none;stroke-width:1px;stroke-linecap:butt;stroke-linejoin:miter;stroke-opacity:1"
         d="m 3159.7947,453.42804 7.4376,7.15946 8.6595,-7.15946 8.3731,7.15946 8.1182,-7.15946 7.6409,7.15946 8.0864,-7.15946 7.9592,7.15946 8.4686,-7.15946 7.9591,7.15946 8.0865,-7.15946 8.2775,7.15946 8.3412,-7.15946 7.8318,7.15946 8.3412,-7.15946 8.1502,7.15946 8.1502,-7.15946 7.8318,7.15946 8.3412,-7.15946 7.7045,7.15946 8.8505,-7.15946 8.0228,7.15946 7.7682,-7.15946 8.1501,7.15946 8.6596,-7.15946 7.8955,7.15946 8.2775,-7.15946 7.5135,7.15946 8.5959,-7.15946 7.9591,7.15946 8.3412,-7.15946 7.8318,7.15946 8.4049,-7.15946 0,8.15138 -8.2776,7.40497 -8.0228,-7.40497 -8.0228,7.40497 -8.0229,-7.40497 -8.7868,7.40497 -7.8319,-7.40497 -7.8955,7.40497 -8.1501,-7.40497 -8.2138,7.40497 -8.2776,-7.40497 -7.8955,7.40497 -8.0228,-7.40497 -8.9143,7.40497 -7.8955,-7.40497 -8.1501,7.40497 -7.9591,-7.40497 -8.0229,7.40497 -8.0865,-7.40497 -8.5959,7.40497 -7.5771,-7.40497 -8.5959,7.40497 -7.7044,-7.40497 -7.6408,7.40497 -8.6595,-7.40497 -8.4687,7.40497 -7.8954,-7.40497 -8.1502,7.40497 -7.6408,-7.40497 -8.2792,7.40497 -8.1943,-7.40497 -8.5996,7.40497 -7.544,-7.05142 z"
         id="path4577-9-7" />
      <path
         style="fill:#d6a6ca;fill-opacity:1;fill-rule:evenodd;stroke:none;stroke-width:1px;stroke-linecap:butt;stroke-linejoin:miter;stroke-opacity:1"
         d="m 3159.7947,483.15597 7.4376,7.15946 8.6595,-7.15946 8.3731,7.15946 8.1182,-7.15946 7.6409,7.15946 8.0864,-7.15946 7.9592,7.15946 8.4686,-7.15946 7.9591,7.15946 8.0865,-7.15946 8.2775,7.15946 8.3412,-7.15946 7.8318,7.15946 8.3412,-7.15946 8.1502,7.15946 8.1502,-7.15946 7.8318,7.15946 8.3412,-7.15946 7.7045,7.15946 8.8505,-7.15946 8.0228,7.15946 7.7682,-7.15946 8.1501,7.15946 8.6596,-7.15946 7.8955,7.15946 8.2775,-7.15946 7.5135,7.15946 8.5959,-7.15946 7.9591,7.15946 8.3412,-7.15946 7.8318,7.15946 8.4049,-7.15946 0,8.15138 -8.2776,7.40497 -8.0228,-7.40497 -8.0228,7.40497 -8.0229,-7.40497 -8.7868,7.40497 -7.8319,-7.40497 -7.8955,7.40497 -8.1501,-7.40497 -8.2138,7.40497 -8.2776,-7.40497 -7.8955,7.40497 -8.0228,-7.40497 -8.9143,7.40497 -7.8955,-7.40497 -8.1501,7.40497 -7.9591,-7.40497 -8.0229,7.40497 -8.0865,-7.40497 -8.5959,7.40497 -7.5771,-7.40497 -8.5959,7.40497 -7.7044,-7.40497 -7.6408,7.40497 -8.6595,-7.40497 -8.4687,7.40497 -7.8954,-7.40497 -8.1502,7.40497 -7.6408,-7.40497 -8.2792,7.40497 -8.1943,-7.40497 -8.5996,7.40497 -7.544,-7.05142 z"
         id="path4577-6-8" />
      <path
         style="fill:#fbdba1;fill-opacity:1;fill-rule:evenodd;stroke:none;stroke-width:1px;stroke-linecap:butt;stroke-linejoin:miter;stroke-opacity:1"
         d="m 3159.7947,498.92839 7.4376,7.15946 8.6595,-7.15946 8.3731,7.15946 8.1182,-7.15946 7.6409,7.15946 8.0864,-7.15946 7.9592,7.15946 8.4686,-7.15946 7.9591,7.15946 8.0865,-7.15946 8.2775,7.15946 8.3412,-7.15946 7.8318,7.15946 8.3412,-7.15946 8.1502,7.15946 8.1502,-7.15946 7.8318,7.15946 8.3412,-7.15946 7.7045,7.15946 8.8505,-7.15946 8.0228,7.15946 7.7682,-7.15946 8.1501,7.15946 8.6596,-7.15946 7.8955,7.15946 8.2775,-7.15946 7.5135,7.15946 8.5959,-7.15946 7.9591,7.15946 8.3412,-7.15946 7.8318,7.15946 8.4049,-7.15946 0,8.15138 -8.2776,7.40497 -8.0228,-7.40497 -8.0228,7.40497 -8.0229,-7.40497 -8.7868,7.40497 -7.8319,-7.40497 -7.8955,7.40497 -8.1501,-7.40497 -8.2138,7.40497 -8.2776,-7.40497 -7.8955,7.40497 -8.0228,-7.40497 -8.9143,7.40497 -7.8955,-7.40497 -8.1501,7.40497 -7.9591,-7.40497 -8.0229,7.40497 -8.0865,-7.40497 -8.5959,7.40497 -7.5771,-7.40497 -8.5959,7.40497 -7.7044,-7.40497 -7.6408,7.40497 -8.6595,-7.40497 -8.4687,7.40497 -7.8954,-7.40497 -8.1502,7.40497 -7.6408,-7.40497 -8.2792,7.40497 -8.1943,-7.40497 -8.5996,7.40497 -7.544,-7.05142 z"
         id="path4577-9-5-7" />
      <path
         style="fill:#9ebbc3;fill-opacity:1;fill-rule:evenodd;stroke:none;stroke-width:1px;stroke-linecap:butt;stroke-linejoin:miter;stroke-opacity:1"
         d="m 3159.7947,526.92785 7.4376,7.15946 8.6595,-7.15946 8.3731,7.15946 8.1182,-7.15946 7.6409,7.15946 8.0864,-7.15946 7.9592,7.15946 8.4686,-7.15946 7.9591,7.15946 8.0865,-7.15946 8.2775,7.15946 8.3412,-7.15946 7.8318,7.15946 8.3412,-7.15946 8.1502,7.15946 8.1502,-7.15946 7.8318,7.15946 8.3412,-7.15946 7.7045,7.15946 8.8505,-7.15946 8.0228,7.15946 7.7682,-7.15946 8.1501,7.15946 8.6596,-7.15946 7.8955,7.15946 8.2775,-7.15946 7.5135,7.15946 8.5959,-7.15946 7.9591,7.15946 8.3412,-7.15946 7.8318,7.15946 8.4049,-7.15946 0,8.15138 -8.2776,7.40497 -8.0228,-7.40497 -8.0228,7.40497 -8.0229,-7.40497 -8.7868,7.40497 -7.8319,-7.40497 -7.8955,7.40497 -8.1501,-7.40497 -8.2138,7.40497 -8.2776,-7.40497 -7.8955,7.40497 -8.0228,-7.40497 -8.9143,7.40497 -7.8955,-7.40497 -8.1501,7.40497 -7.9591,-7.40497 -8.0229,7.40497 -8.0865,-7.40497 -8.5959,7.40497 -7.5771,-7.40497 -8.5959,7.40497 -7.7044,-7.40497 -7.6408,7.40497 -8.6595,-7.40497 -8.4687,7.40497 -7.8954,-7.40497 -8.1502,7.40497 -7.6408,-7.40497 -8.2792,7.40497 -8.1943,-7.40497 -8.5996,7.40497 -7.544,-7.05142 z"
         id="path4577-32" />
      <path
         style="fill:#d4ebe0;fill-opacity:1;fill-rule:evenodd;stroke:none;stroke-width:1px;stroke-linecap:butt;stroke-linejoin:miter;stroke-opacity:1"
         d="m 3159.7947,542.70027 7.4376,7.15946 8.6595,-7.15946 8.3731,7.15946 8.1182,-7.15946 7.6409,7.15946 8.0864,-7.15946 7.9592,7.15946 8.4686,-7.15946 7.9591,7.15946 8.0865,-7.15946 8.2775,7.15946 8.3412,-7.15946 7.8318,7.15946 8.3412,-7.15946 8.1502,7.15946 8.1502,-7.15946 7.8318,7.15946 8.3412,-7.15946 7.7045,7.15946 8.8505,-7.15946 8.0228,7.15946 7.7682,-7.15946 8.1501,7.15946 8.6596,-7.15946 7.8955,7.15946 8.2775,-7.15946 7.5135,7.15946 8.5959,-7.15946 7.9591,7.15946 8.3412,-7.15946 7.8318,7.15946 8.4049,-7.15946 0,8.15138 -8.2776,7.40497 -8.0228,-7.40497 -8.0228,7.40497 -8.0229,-7.40497 -8.7868,7.40497 -7.8319,-7.40497 -7.8955,7.40497 -8.1501,-7.40497 -8.2138,7.40497 -8.2776,-7.40497 -7.8955,7.40497 -8.0228,-7.40497 -8.9143,7.40497 -7.8955,-7.40497 -8.1501,7.40497 -7.9591,-7.40497 -8.0229,7.40497 -8.0865,-7.40497 -8.5959,7.40497 -7.5771,-7.40497 -8.5959,7.40497 -7.7044,-7.40497 -7.6408,7.40497 -8.6595,-7.40497 -8.4687,7.40497 -7.8954,-7.40497 -8.1502,7.40497 -7.6408,-7.40497 -8.2792,7.40497 -8.1943,-7.40497 -8.5996,7.40497 -7.544,-7.05142 z"
         id="path4577-9-74" />
      <path
         style="fill:#a2d7d0;fill-opacity:1;fill-rule:evenodd;stroke:none;stroke-width:1px;stroke-linecap:butt;stroke-linejoin:miter;stroke-opacity:1"
         d="m 3159.7947,572.4282 7.4376,7.15946 8.6595,-7.15946 8.3731,7.15946 8.1182,-7.15946 7.6409,7.15946 8.0864,-7.15946 7.9592,7.15946 8.4686,-7.15946 7.9591,7.15946 8.0865,-7.15946 8.2775,7.15946 8.3412,-7.15946 7.8318,7.15946 8.3412,-7.15946 8.1502,7.15946 8.1502,-7.15946 7.8318,7.15946 8.3412,-7.15946 7.7045,7.15946 8.8505,-7.15946 8.0228,7.15946 7.7682,-7.15946 8.1501,7.15946 8.6596,-7.15946 7.8955,7.15946 8.2775,-7.15946 7.5135,7.15946 8.5959,-7.15946 7.9591,7.15946 8.3412,-7.15946 7.8318,7.15946 8.4049,-7.15946 0,8.15138 -8.2776,7.40497 -8.0228,-7.40497 -8.0228,7.40497 -8.0229,-7.40497 -8.7868,7.40497 -7.8319,-7.40497 -7.8955,7.40497 -8.1501,-7.40497 -8.2138,7.40497 -8.2776,-7.40497 -7.8955,7.40497 -8.0228,-7.40497 -8.9143,7.40497 -7.8955,-7.40497 -8.1501,7.40497 -7.9591,-7.40497 -8.0229,7.40497 -8.0865,-7.40497 -8.5959,7.40497 -7.5771,-7.40497 -8.5959,7.40497 -7.7044,-7.40497 -7.6408,7.40497 -8.6595,-7.40497 -8.4687,7.40497 -7.8954,-7.40497 -8.1502,7.40497 -7.6408,-7.40497 -8.2792,7.40497 -8.1943,-7.40497 -8.5996,7.40497 -7.544,-7.05142 z"
         id="path4577-6-2" />
      <path
         style="fill:#f0a1ba;fill-opacity:1;fill-rule:evenodd;stroke:none;stroke-width:1px;stroke-linecap:butt;stroke-linejoin:miter;stroke-opacity:1"
         d="m 3159.7947,588.20062 7.4376,7.15946 8.6595,-7.15946 8.3731,7.15946 8.1182,-7.15946 7.6409,7.15946 8.0864,-7.15946 7.9592,7.15946 8.4686,-7.15946 7.9591,7.15946 8.0865,-7.15946 8.2775,7.15946 8.3412,-7.15946 7.8318,7.15946 8.3412,-7.15946 8.1502,7.15946 8.1502,-7.15946 7.8318,7.15946 8.3412,-7.15946 7.7045,7.15946 8.8505,-7.15946 8.0228,7.15946 7.7682,-7.15946 8.1501,7.15946 8.6596,-7.15946 7.8955,7.15946 8.2775,-7.15946 7.5135,7.15946 8.5959,-7.15946 7.9591,7.15946 8.3412,-7.15946 7.8318,7.15946 8.4049,-7.15946 0,8.15138 -8.2776,7.40497 -8.0228,-7.40497 -8.0228,7.40497 -8.0229,-7.40497 -8.7868,7.40497 -7.8319,-7.40497 -7.8955,7.40497 -8.1501,-7.40497 -8.2138,7.40497 -8.2776,-7.40497 -7.8955,7.40497 -8.0228,-7.40497 -8.9143,7.40497 -7.8955,-7.40497 -8.1501,7.40497 -7.9591,-7.40497 -8.0229,7.40497 -8.0865,-7.40497 -8.5959,7.40497 -7.5771,-7.40497 -8.5959,7.40497 -7.7044,-7.40497 -7.6408,7.40497 -8.6595,-7.40497 -8.4687,7.40497 -7.8954,-7.40497 -8.1502,7.40497 -7.6408,-7.40497 -8.2792,7.40497 -8.1943,-7.40497 -8.5996,7.40497 -7.544,-7.05142 z"
         id="path4577-9-5-8" />
      <path
         style="fill:#b8bea9;fill-opacity:1;fill-rule:evenodd;stroke:none;stroke-width:1px;stroke-linecap:butt;stroke-linejoin:miter;stroke-opacity:1"
         d="m 3159.7947,617.3835 7.4376,7.15946 8.6595,-7.15946 8.3731,7.15946 8.1182,-7.15946 7.6409,7.15946 8.0864,-7.15946 7.9592,7.15946 8.4686,-7.15946 7.9591,7.15946 8.0865,-7.15946 8.2775,7.15946 8.3412,-7.15946 7.8318,7.15946 8.3412,-7.15946 8.1502,7.15946 8.1502,-7.15946 7.8318,7.15946 8.3412,-7.15946 7.7045,7.15946 8.8505,-7.15946 8.0228,7.15946 7.7682,-7.15946 8.1501,7.15946 8.6596,-7.15946 7.8955,7.15946 8.2775,-7.15946 7.5135,7.15946 8.5959,-7.15946 7.9591,7.15946 8.3412,-7.15946 7.8318,7.15946 8.4049,-7.15946 0,8.15138 -8.2776,7.40497 -8.0228,-7.40497 -8.0228,7.40497 -8.0229,-7.40497 -8.7868,7.40497 -7.8319,-7.40497 -7.8955,7.40497 -8.1501,-7.40497 -8.2138,7.40497 -8.2776,-7.40497 -7.8955,7.40497 -8.0228,-7.40497 -8.9143,7.40497 -7.8955,-7.40497 -8.1501,7.40497 -7.9591,-7.40497 -8.0229,7.40497 -8.0865,-7.40497 -8.5959,7.40497 -7.5771,-7.40497 -8.5959,7.40497 -7.7044,-7.40497 -7.6408,7.40497 -8.6595,-7.40497 -8.4687,7.40497 -7.8954,-7.40497 -8.1502,7.40497 -7.6408,-7.40497 -8.2792,7.40497 -8.1943,-7.40497 -8.5996,7.40497 -7.544,-7.05142 z"
         id="path4577-6-2-0" />
      <path
         style="fill:#aee3e2;fill-opacity:1;fill-rule:evenodd;stroke:none;stroke-width:1px;stroke-linecap:butt;stroke-linejoin:miter;stroke-opacity:1"
         d="m 3159.7947,633.15592 7.4376,7.15946 8.6595,-7.15946 8.3731,7.15946 8.1182,-7.15946 7.6409,7.15946 8.0864,-7.15946 7.9592,7.15946 8.4686,-7.15946 7.9591,7.15946 8.0865,-7.15946 8.2775,7.15946 8.3412,-7.15946 7.8318,7.15946 8.3412,-7.15946 8.1502,7.15946 8.1502,-7.15946 7.8318,7.15946 8.3412,-7.15946 7.7045,7.15946 8.8505,-7.15946 8.0228,7.15946 7.7682,-7.15946 8.1501,7.15946 8.6596,-7.15946 7.8955,7.15946 8.2775,-7.15946 7.5135,7.15946 8.5959,-7.15946 7.9591,7.15946 8.3412,-7.15946 7.8318,7.15946 8.4049,-7.15946 0,8.15138 -8.2776,7.40497 -8.0228,-7.40497 -8.0228,7.40497 -8.0229,-7.40497 -8.7868,7.40497 -7.8319,-7.40497 -7.8955,7.40497 -8.1501,-7.40497 -8.2138,7.40497 -8.2776,-7.40497 -7.8955,7.40497 -8.0228,-7.40497 -8.9143,7.40497 -7.8955,-7.40497 -8.1501,7.40497 -7.9591,-7.40497 -8.0229,7.40497 -8.0865,-7.40497 -8.5959,7.40497 -7.5771,-7.40497 -8.5959,7.40497 -7.7044,-7.40497 -7.6408,7.40497 -8.6595,-7.40497 -8.4687,7.40497 -7.8954,-7.40497 -8.1502,7.40497 -7.6408,-7.40497 -8.2792,7.40497 -8.1943,-7.40497 -8.5996,7.40497 -7.544,-7.05142 z"
         id="path4577-9-5-8-2" />
      <g
         id="g4712"
         transform="matrix(0.60526094,0,0,0.61403492,1313.9894,178.49428)">
        <path
           id="path4585"
           d="m 3282.9925,470.71977 c -0.022,-0.0609 -0.048,-0.13152 -0.057,-0.15697 -0.01,-0.0254 -0.081,-0.0676 -0.16,-0.0937 -0.1361,-0.0449 -0.1441,-0.0576 -0.1502,-0.23552 -0.01,-0.30358 0,-0.31976 0.2079,-0.53033 0.1914,-0.19025 0.2139,-0.20119 0.4134,-0.20086 0.116,1.9e-4 0.3048,0.0116 0.4194,0.0254 0.1813,0.0218 0.2119,0.0386 0.2346,0.12918 0.04,0.15893 0.028,0.67914 -0.02,0.91363 l -0.043,0.20917 -0.1852,0.0254 c -0.1018,0.0139 -0.2827,0.0253 -0.4021,0.0253 -0.1999,0 -0.2201,-0.009 -0.2574,-0.1107 z"
           style="opacity:1;fill:#230236;fill-opacity:1;stroke:none;stroke-width:2;stroke-linecap:round;stroke-linejoin:miter;stroke-miterlimit:4;stroke-dasharray:none;stroke-opacity:0.15" />
        <path
           id="path4587"
           d="m 3286.2457,470.44266 c -0.015,-0.0155 -0.028,-1.6093 -0.028,-3.5418 0,-2.40948 -0.014,-3.57871 -0.044,-3.72071 -0.037,-0.17084 -0.068,-0.2212 -0.1816,-0.2879 -0.1676,-0.0988 -0.1835,-0.15707 -0.1685,-0.61601 l 0.012,-0.3623 1.9539,-0.0115 c 1.0746,-0.006 2.0109,-0.001 2.0806,0.0111 0.093,0.0166 0.1338,0.0501 0.1525,0.12489 0.034,0.13359 0.2031,0.20244 0.63,0.25593 0.1856,0.0233 0.3602,0.0423 0.3881,0.0423 0.028,0 0.063,0.0498 0.077,0.1107 0.039,0.16328 0.09,0.20936 0.2587,0.23639 0.1332,0.0213 0.1554,0.0409 0.1771,0.15662 0.029,0.15572 0.087,0.21158 0.2529,0.24474 0.1149,0.023 0.1231,0.0375 0.1461,0.25768 0.032,0.31004 0.088,0.41885 0.252,0.4972 l 0.1371,0.0653 0,0.64539 0,0.64538 -0.1371,0.0653 c -0.1653,0.0788 -0.2195,0.18705 -0.2528,0.50477 -0.018,0.17053 -0.044,0.2466 -0.09,0.26035 -0.1372,0.0414 -0.1881,0.0866 -0.2684,0.23852 -0.046,0.0866 -0.1183,0.16394 -0.1612,0.17188 -0.1132,0.021 -0.1838,0.0891 -0.2458,0.23723 -0.038,0.0919 -0.082,0.13101 -0.1448,0.13142 -0.1582,9.7e-4 -0.2785,0.0946 -0.3357,0.26107 -0.118,0.34315 -0.03,0.74545 0.21,0.95543 0.082,0.0723 0.2106,0.22605 0.2847,0.34165 0.074,0.11561 0.1718,0.2301 0.2173,0.25443 0.046,0.0243 0.1153,0.12021 0.1551,0.21306 0.08,0.18617 0.1435,0.2521 0.2647,0.27459 0.044,0.008 0.1107,0.079 0.1478,0.15769 0.094,0.20005 0.1471,0.23287 0.4189,0.26004 0.4562,0.0456 0.4204,0.007 0.4204,0.45745 0,0.30242 -0.014,0.4087 -0.06,0.44662 -0.042,0.0348 -0.1849,0.0451 -0.4761,0.0344 l -0.4161,-0.0154 -0.4078,-0.40757 c -0.2244,-0.22416 -0.4355,-0.47355 -0.4693,-0.55421 -0.042,-0.10029 -0.1048,-0.16481 -0.199,-0.20413 -0.1097,-0.0458 -0.1432,-0.0869 -0.1648,-0.20223 -0.023,-0.12326 -0.054,-0.15613 -0.2062,-0.22142 -0.1381,-0.0592 -0.179,-0.0979 -0.179,-0.16979 0,-0.13475 -0.1034,-0.26181 -0.2369,-0.2911 -0.093,-0.0205 -0.1201,-0.0519 -0.1382,-0.16301 -0.016,-0.0991 -0.091,-0.20543 -0.2683,-0.38031 -0.2166,-0.21381 -0.2647,-0.24273 -0.404,-0.24273 -0.1299,0 -0.1854,-0.0276 -0.3117,-0.15503 -0.1463,-0.1477 -0.1694,-0.15641 -0.4887,-0.18424 -0.4028,-0.0351 -0.9192,0.005 -1.039,0.0803 -0.048,0.0301 -0.1201,0.1143 -0.1606,0.18707 -0.066,0.11876 -0.076,0.27473 -0.094,1.52113 l -0.021,1.38881 -0.4049,0.0114 c -0.2227,0.006 -0.4175,-10e-4 -0.433,-0.0168 z m 4.1532,-4.21328 c 0.073,-0.0398 0.1481,-0.113 0.167,-0.16267 0.043,-0.11322 0.1131,-0.16928 0.2531,-0.20268 0.1366,-0.0326 0.1771,-0.10717 0.2409,-0.44321 0.028,-0.14972 0.071,-0.26633 0.098,-0.26633 0.026,0 0.095,-0.0557 0.152,-0.12386 0.09,-0.1069 0.1043,-0.16165 0.1043,-0.39993 0,-0.3432 -0.043,-0.46133 -0.1992,-0.54178 -0.076,-0.0394 -0.1303,-0.10433 -0.1441,-0.17301 -0.055,-0.27417 -0.08,-0.31078 -0.2283,-0.34773 -0.1237,-0.0307 -0.1509,-0.0576 -0.172,-0.16968 -0.031,-0.16256 -0.043,-0.17084 -0.3329,-0.21797 -0.1453,-0.0236 -0.2544,-0.0663 -0.2927,-0.1144 -0.1773,-0.22301 -0.6958,-0.30103 -1.8672,-0.28096 l -0.8395,0.0144 -0.094,0.10938 c -0.1342,0.15585 -0.1473,0.34443 -0.133,1.91672 0.012,1.32798 0.016,1.38433 0.093,1.44089 0.068,0.0497 0.3135,0.057 1.5712,0.047 1.3449,-0.0107 1.5035,-0.0189 1.6232,-0.0842 z"
           style="opacity:1;fill:#230236;fill-opacity:1;stroke:none;stroke-width:2;stroke-linecap:round;stroke-linejoin:miter;stroke-miterlimit:4;stroke-dasharray:none;stroke-opacity:0.15" />
        <path
           id="path4581"
           d="m 3282.5863,456.95987 c -0.6317,-0.92949 -3.2974,-3.69253 -3.5625,-3.69253 -0.069,0 -0.3308,-0.19927 -0.582,-0.44281 -0.5394,-0.52299 -1.5859,-1.32842 -1.7261,-1.32842 -0.054,0 -0.2938,-0.18115 -0.5328,-0.40256 -0.2389,-0.2214 -0.5198,-0.40255 -0.6241,-0.40255 -0.1043,0 -0.2138,-0.0621 -0.2434,-0.13791 -0.065,-0.16775 -2.6509,-1.79434 -2.8522,-1.79434 -0.079,0 -0.2334,-0.10869 -0.3438,-0.24153 -0.1103,-0.13284 -0.3367,-0.24153 -0.5031,-0.24153 -0.1664,0 -0.3026,-0.064 -0.3026,-0.14224 0,-0.0782 -0.1269,-0.18482 -0.282,-0.23686 -0.1551,-0.052 -0.3907,-0.1611 -0.5237,-0.24236 -0.5112,-0.31245 -2.0283,-0.98875 -2.218,-0.98875 -0.1095,0 -0.1991,-0.0725 -0.1991,-0.16102 0,-0.0886 -0.1724,-0.16102 -0.3831,-0.16102 -0.2108,0 -0.4734,-0.10869 -0.5838,-0.24153 -0.1103,-0.13285 -0.3325,-0.24154 -0.4936,-0.24154 -0.1612,0 -0.3379,-0.0725 -0.3927,-0.16102 -0.055,-0.0886 -0.2677,-0.16102 -0.4731,-0.16102 -0.2055,0 -0.4639,-0.10869 -0.5743,-0.24153 -0.1103,-0.13284 -0.405,-0.24153 -0.6548,-0.24153 -0.2498,0 -0.499,-0.0725 -0.5538,-0.16102 -0.055,-0.0886 -0.3039,-0.16102 -0.5537,-0.16102 -0.2498,0 -0.5445,-0.10869 -0.6548,-0.24153 -0.1103,-0.13285 -0.374,-0.24153 -0.5859,-0.24153 -0.3853,0 -0.4768,-0.0331 -1.4817,-0.53633 -0.2953,-0.14783 -0.6407,-0.26878 -0.7677,-0.26878 -0.1269,0 -0.3567,-0.0618 -0.5106,-0.13733 -0.384,-0.18848 -1.8723,-0.82778 -2.4553,-1.0547 -0.1329,-0.0518 -0.3504,-0.15824 -0.4834,-0.23664 -0.1329,-0.0784 -1.0394,-0.53174 -2.0143,-1.0074 -0.9749,-0.47567 -1.7967,-0.9192 -1.8262,-0.98562 -0.03,-0.0664 -0.185,-0.12077 -0.3454,-0.12077 -0.1604,0 -0.3333,-0.10869 -0.3843,-0.24153 -0.051,-0.13284 -0.2401,-0.24153 -0.4201,-0.24153 -0.1801,0 -0.3274,-0.0725 -0.3274,-0.16102 0,-0.0886 -0.1088,-0.16102 -0.2417,-0.16102 -0.1329,0 -0.2417,-0.0711 -0.2417,-0.15796 0,-0.0869 -0.1813,-0.20342 -0.4029,-0.25898 -0.2215,-0.0556 -0.4028,-0.15423 -0.4028,-0.21925 0,-0.065 -0.2538,-0.25478 -0.564,-0.42171 -0.3102,-0.16693 -0.564,-0.35949 -0.564,-0.42791 0,-0.0684 -0.077,-0.1244 -0.1719,-0.1244 -0.1457,0 -1.1873,-0.70138 -1.4396,-0.96937 -0.044,-0.0471 -0.4068,-0.33696 -0.8057,-0.64419 -1.1788,-0.9081 -1.7765,-1.44394 -3.2257,-2.8921 -1.6511,-1.64983 -2.2479,-2.32836 -2.6579,-3.02207 -0.1701,-0.28782 -0.3661,-0.52332 -0.4357,-0.52332 -0.07,0 -0.1264,-0.0773 -0.1264,-0.17176 0,-0.0945 -0.1672,-0.40242 -0.3717,-0.68434 -0.2044,-0.28191 -0.5126,-0.80241 -0.6848,-1.15666 -0.1722,-0.35424 -0.3675,-0.66823 -0.434,-0.69776 -0.066,-0.0295 -0.1209,-0.14553 -0.1209,-0.2578 0,-0.11227 -0.1813,-0.54482 -0.4028,-0.96123 -0.2216,-0.4164 -0.4029,-0.8899 -0.4029,-1.05221 0,-0.16231 -0.1083,-0.50266 -0.2407,-0.75633 -0.1324,-0.25366 -0.2412,-0.58374 -0.2417,-0.73349 0,-0.14976 -0.073,-0.31707 -0.1622,-0.3718 -0.089,-0.0547 -0.1611,-0.38985 -0.1611,-0.74469 0,-0.35484 -0.076,-0.78742 -0.1693,-0.9613 -0.093,-0.17387 -0.2127,-0.92993 -0.2657,-1.68013 -0.053,-0.7502 -0.158,-1.364 -0.2335,-1.364 -0.1791,0 -0.1794,-3.98048 -3e-4,-4.09109 0.075,-0.0465 0.1858,-0.71909 0.2455,-1.4946 0.06,-0.77551 0.1793,-1.48081 0.2659,-1.56734 0.087,-0.0865 0.1574,-0.46462 0.1574,-0.84021 0,-0.37558 0.073,-0.72766 0.1611,-0.7824 0.089,-0.0547 0.1616,-0.22204 0.1622,-0.3718 0,-0.14976 0.1093,-0.47983 0.2417,-0.7335 0.1324,-0.25366 0.2407,-0.62804 0.2407,-0.83194 0,-0.2039 0.054,-0.39488 0.1209,-0.4244 0.1169,-0.052 0.3639,-0.53257 0.9134,-1.77781 0.1449,-0.32834 0.3341,-0.64057 0.4203,-0.69384 0.086,-0.0533 0.1568,-0.2375 0.1568,-0.40939 0,-0.1719 0.056,-0.31254 0.1245,-0.31254 0.069,0 0.2679,-0.27172 0.4432,-0.60383 0.1752,-0.3321 0.4818,-0.78424 0.6812,-1.00474 0.1994,-0.22049 0.3625,-0.45692 0.3625,-0.52538 0,-0.24329 3.4992,-3.89889 4.5216,-4.72375 0.8363,-0.6747 2.2944,-1.76222 2.5979,-1.93767 0.172,-0.0994 0.4901,-0.3349 0.707,-0.52332 0.2168,-0.18841 0.4677,-0.34256 0.5574,-0.34256 0.09,0 0.4336,-0.1651 0.7642,-0.36689 0.3306,-0.20178 1.0362,-0.57053 1.5679,-0.81943 0.5318,-0.24891 1.078,-0.50936 1.2139,-0.57877 0.1359,-0.0694 0.4803,-0.17742 0.7654,-0.23999 0.2852,-0.0626 0.5184,-0.18049 0.5184,-0.26201 0,-0.0815 0.2133,-0.14823 0.474,-0.14823 0.2606,0 0.5135,-0.0641 0.562,-0.14244 0.048,-0.0783 0.4136,-0.19122 0.8114,-0.25083 0.3979,-0.0596 0.7657,-0.17667 0.8173,-0.26011 0.052,-0.0834 0.4115,-0.15172 0.7999,-0.15172 0.3884,0 0.7456,-0.0638 0.7938,-0.14169 0.048,-0.0779 0.7775,-0.19337 1.6207,-0.25654 0.8432,-0.0632 1.5737,-0.18056 1.6234,-0.26086 0.1157,-0.18713 6.0335,-0.19278 6.0335,-0.006 0,0.0771 0.6517,0.19119 1.4482,0.25345 0.7965,0.0623 1.4896,0.1803 1.5403,0.2623 0.051,0.082 0.4463,0.14911 0.8789,0.14911 0.4327,0 0.8277,0.0662 0.8777,0.147 0.05,0.0809 0.3802,0.19585 0.7337,0.25555 0.3537,0.0597 0.6839,0.17468 0.7339,0.25554 0.05,0.0808 0.2568,0.14701 0.4595,0.14701 0.3327,0 0.9821,0.24349 1.7453,0.65444 0.1539,0.0829 0.4198,0.15066 0.5909,0.15066 0.1711,0 0.3352,0.0543 0.3647,0.12077 0.078,0.17499 1.0871,0.68434 1.356,0.68434 0.1257,0 0.2286,0.0725 0.2286,0.16102 0,0.0886 0.1,0.16102 0.222,0.16102 0.1221,0 0.3122,0.10869 0.4226,0.24153 0.1103,0.13284 0.3367,0.24153 0.5031,0.24153 0.1664,0 0.3026,0.056 0.3026,0.12441 0,0.0684 0.2719,0.26768 0.6043,0.4428 0.3323,0.17513 0.7848,0.48144 1.0055,0.68071 0.2206,0.19926 0.4661,0.36229 0.5455,0.36229 0.079,0 0.2987,0.16304 0.4873,0.3623 0.1887,0.19926 0.6321,0.57418 0.9854,0.83316 1.6946,1.24229 4.5921,4.8299 5.7971,7.17763 0.1591,0.30996 0.3494,0.67226 0.423,0.8051 0.074,0.13285 0.2527,0.49514 0.3981,0.80511 0.1453,0.30996 0.4374,0.91444 0.649,1.34328 0.2116,0.42884 0.3848,0.90907 0.3848,1.06717 0,0.15811 0.1088,0.37767 0.2417,0.48792 0.1329,0.11025 0.2417,0.36846 0.2417,0.57379 0,0.20533 0.064,0.41295 0.1426,0.46138 0.078,0.0484 0.1752,0.31055 0.2151,0.5825 0.082,0.55447 -0.3182,0.95867 -0.9481,0.95867 -0.1966,0 -0.4023,0.0725 -0.457,0.16102 -0.055,0.0886 -0.2585,0.16332 -0.4527,0.16614 -0.1942,0.003 -0.4938,0.11151 -0.6658,0.24153 -0.1721,0.13003 -0.4803,0.23641 -0.6849,0.23641 -0.2046,0 -0.372,0.0725 -0.372,0.16102 0,0.0886 -0.2087,0.16102 -0.4637,0.16102 -0.2551,0 -0.554,0.10869 -0.6643,0.24154 -0.1104,0.13284 -0.4051,0.24153 -0.6549,0.24153 -0.2498,0 -0.4989,0.0725 -0.5537,0.16102 -0.055,0.0886 -0.2345,0.16102 -0.3993,0.16102 -0.1649,0 -0.5413,0.12095 -0.8365,0.26877 -1.005,0.5032 -1.0965,0.53633 -1.4817,0.53633 -0.2119,0 -0.4756,0.10869 -0.5859,0.24153 -0.1104,0.13285 -0.3688,0.24154 -0.5743,0.24154 -0.2055,0 -0.4184,0.0725 -0.4732,0.16102 -0.055,0.0886 -0.2627,0.16102 -0.4621,0.16102 -0.1994,0 -0.5033,0.10638 -0.6754,0.23641 -0.172,0.13002 -0.4614,0.23871 -0.6431,0.24153 -0.1817,0.003 -0.3992,0.0688 -0.4834,0.14661 -0.084,0.0778 -0.425,0.18979 -0.7574,0.24883 -0.4858,0.0863 -0.6043,0.0581 -0.6043,-0.14368 0,-0.13805 -0.065,-0.37683 -0.1447,-0.53061 -0.5767,-1.11392 -0.9833,-2.03465 -0.9833,-2.22672 0,-0.12466 -0.059,-0.22666 -0.1301,-0.22666 -0.1427,0 -0.6756,-1.12231 -0.6756,-1.42279 0,-0.10308 -0.071,-0.18742 -0.1581,-0.18742 -0.087,0 -0.2035,-0.18115 -0.2591,-0.40256 -0.056,-0.2214 -0.1658,-0.40255 -0.2448,-0.40255 -0.079,0 -0.1437,-0.10869 -0.1437,-0.24153 0,-0.13284 -0.068,-0.24153 -0.1503,-0.24153 -0.083,0 -0.1988,-0.15287 -0.2582,-0.33971 -0.1323,-0.41669 -2.3144,-2.60622 -2.9307,-2.94083 -0.2462,-0.13365 -0.7921,-0.40575 -1.2131,-0.60467 -0.421,-0.19893 -0.7654,-0.42056 -0.7654,-0.49253 0,-0.072 -0.1813,-0.13085 -0.4029,-0.13085 -0.2215,0 -0.4028,-0.0725 -0.4028,-0.16102 0,-0.0886 -0.2093,-0.16102 -0.465,-0.16102 -0.2558,0 -0.6727,-0.10824 -0.9266,-0.24054 -0.6536,-0.34065 -6.3918,-0.34146 -6.9878,-9.6e-4 -0.2216,0.12656 -0.567,0.23268 -0.7676,0.23582 -0.2006,0.003 -0.4907,0.0732 -0.6446,0.15566 -0.1539,0.0825 -0.7542,0.37101 -1.334,0.64119 -0.5799,0.27018 -1.2113,0.63746 -1.4033,0.81618 -0.192,0.17871 -0.4196,0.32493 -0.5059,0.32493 -0.2019,0 -2.7572,2.52519 -2.7572,2.72468 0,0.0829 -0.091,0.2495 -0.2014,0.37027 -0.3794,0.41364 -0.689,0.99122 -1.3429,2.50599 -0.1255,0.29083 -0.2283,0.77565 -0.2283,1.07738 0,0.30174 -0.073,0.5934 -0.1611,0.64813 -0.2133,0.13172 -0.2133,3.8938 0,4.02552 0.089,0.0547 0.1611,0.37123 0.1611,0.70332 0,0.33209 0.1065,0.74446 0.2366,0.91637 0.1302,0.17191 0.2389,0.4756 0.2417,0.67486 0,0.19926 0.078,0.3623 0.1663,0.3623 0.089,0 0.1612,0.13604 0.1612,0.30232 0,0.16628 0.1087,0.39253 0.2417,0.50278 0.1329,0.11025 0.2417,0.28916 0.2417,0.39757 0,0.10841 0.2538,0.45824 0.564,0.7774 0.3102,0.31917 0.564,0.64164 0.564,0.71662 0,0.14646 1.1646,1.32883 1.3089,1.32883 0.048,0 0.4797,0.36185 0.96,0.80411 0.4804,0.44226 0.9326,0.80456 1.005,0.80511 0.072,3.2e-4 0.3693,0.18214 0.6598,0.40354 0.2905,0.2214 0.5787,0.40255 0.6405,0.40255 0.062,0 0.2676,0.14448 0.4573,0.32106 0.1897,0.17659 0.6164,0.46249 0.9483,0.63534 0.8464,0.44083 1.3386,0.7208 1.4327,0.81483 0.044,0.0443 0.5882,0.33412 1.2086,0.64409 0.6204,0.30996 1.1522,0.61791 1.1817,0.68433 0.03,0.0664 0.229,0.12077 0.4432,0.12077 0.2142,0 0.3894,0.0725 0.3894,0.16102 0,0.0886 0.08,0.16102 0.1771,0.16102 0.1729,0 1.0747,0.36306 1.6337,0.65771 0.4547,0.23972 1.6326,0.62558 1.9173,0.62811 0.145,0.001 0.4713,0.11059 0.7252,0.24289 0.2538,0.13229 0.5842,0.24098 0.734,0.24153 0.1499,3.2e-4 0.3173,0.0734 0.3721,0.16201 0.055,0.0886 0.2292,0.16102 0.3876,0.16102 0.263,0 0.9535,0.27142 1.6648,0.65444 0.1539,0.0829 0.3857,0.15067 0.5152,0.15067 0.1294,0 0.5763,0.18115 0.993,0.40255 0.4167,0.2214 0.8365,0.40255 0.9328,0.40255 0.1656,0 1.3749,0.54311 2.4357,1.09394 0.2659,0.13807 0.6104,0.31071 0.7655,0.38365 0.6844,0.32186 0.9003,0.43357 1.8128,0.93773 0.5318,0.29379 1.1119,0.61325 1.2892,0.70989 0.1772,0.0966 0.3585,0.22098 0.4028,0.27631 0.044,0.0553 0.3347,0.23647 0.6452,0.40255 0.3106,0.16608 0.7932,0.465 1.0724,0.66426 0.2791,0.19927 0.5538,0.3623 0.6104,0.3623 0.056,0 0.1903,0.0739 0.2974,0.16422 0.107,0.0903 0.8835,0.6466 1.7255,1.23617 0.8419,0.58957 1.9395,1.42141 2.439,1.84854 0.4995,0.42712 0.946,0.77659 0.9923,0.77659 0.359,0 5.5356,5.21246 6.1708,6.2135 0.1637,0.25788 0.4631,0.62844 0.6654,0.82347 0.2023,0.19504 0.3679,0.40558 0.3679,0.46787 0,0.0623 0.1765,0.34457 0.3923,0.62729 0.2158,0.28272 0.5904,0.86923 0.8325,1.30337 0.242,0.43413 0.5724,1.00671 0.7342,1.27239 0.1618,0.26568 0.3388,0.59175 0.3934,0.72459 0.1331,0.32399 0.5256,1.14998 0.6887,1.44919 0.4074,0.7475 0.504,0.99217 0.504,1.27648 0,0.1731 0.072,0.35951 0.1612,0.41424 0.5717,0.35308 -0.4574,0.40255 -8.3735,0.40255 l -8.5345,0 -0.664,-0.97706 z"
           style="opacity:1;fill:#230236;fill-opacity:1;stroke:none;stroke-width:2;stroke-linecap:round;stroke-linejoin:miter;stroke-miterlimit:4;stroke-dasharray:none;stroke-opacity:0.15" />
        <path
           id="path4583"
           d="m 3260.92,503.66688 c -0.055,-0.0887 -0.7744,-0.16102 -1.6025,-0.16102 -1.0197,0 -1.6513,-0.0773 -1.9645,-0.24054 -0.2538,-0.13229 -0.8017,-0.24098 -1.2174,-0.24153 -0.4158,-3.2e-4 -0.8008,-0.0735 -0.8556,-0.16202 -0.055,-0.0886 -0.3672,-0.16359 -0.6943,-0.16672 -0.3271,-0.003 -0.7761,-0.10927 -0.9977,-0.23583 -0.2215,-0.12656 -0.5979,-0.23267 -0.8364,-0.23583 -0.2385,-0.003 -0.4785,-0.0782 -0.5333,-0.16672 -0.055,-0.0886 -0.2947,-0.16334 -0.5332,-0.16614 -0.2385,-0.003 -0.5744,-0.11153 -0.7464,-0.24153 -0.172,-0.13004 -0.4802,-0.23642 -0.6849,-0.23642 -0.2046,0 -0.372,-0.0725 -0.372,-0.16102 0,-0.0886 -0.152,-0.16102 -0.3377,-0.16102 -0.1858,0 -0.5665,-0.11902 -0.846,-0.26452 -0.9267,-0.48223 -1.0661,-0.54058 -1.2921,-0.54058 -0.1233,0 -0.3144,-0.10869 -0.4248,-0.24153 -0.1103,-0.13285 -0.3367,-0.24153 -0.5031,-0.24153 -0.1664,0 -0.3026,-0.0725 -0.3026,-0.16103 0,-0.0886 -0.145,-0.16102 -0.3223,-0.16102 -0.1772,0 -0.3223,-0.0711 -0.3223,-0.15796 0,-0.0869 -0.1813,-0.2034 -0.4028,-0.25898 -0.2216,-0.0556 -0.4029,-0.15719 -0.4029,-0.22582 0,-0.0686 -0.1269,-0.16736 -0.282,-0.21941 -0.2741,-0.0919 -0.8443,-0.42432 -1.0071,-0.58701 -0.1628,-0.1627 -0.7331,-0.49508 -1.0072,-0.58702 -0.1551,-0.052 -0.282,-0.15864 -0.282,-0.23686 0,-0.0782 -0.091,-0.14363 -0.2014,-0.14534 -0.1108,0 -0.4907,-0.25532 -0.8442,-0.56357 -0.3536,-0.30826 -0.6955,-0.56049 -0.7599,-0.56049 -0.064,0 -0.3226,-0.19928 -0.5738,-0.4428 -0.2512,-0.24356 -0.7432,-0.65871 -1.0933,-0.92259 -0.7878,-0.59381 -3.028,-2.82135 -3.7823,-3.76081 -0.3083,-0.38396 -0.7127,-0.86503 -0.8988,-1.06903 -0.1861,-0.20401 -0.6901,-0.90428 -1.1201,-1.55617 -0.4299,-0.6519 -0.8216,-1.22149 -0.8702,-1.26577 -0.049,-0.0443 -0.1676,-0.22543 -0.2644,-0.40255 -1.0189,-1.86612 -1.2526,-2.2754 -1.3746,-2.40726 -0.078,-0.0841 -0.1415,-0.2834 -0.1415,-0.44281 0,-0.15941 -0.073,-0.28984 -0.1612,-0.28984 -0.089,0 -0.1611,-0.0796 -0.1611,-0.17694 0,-0.0973 -0.1088,-0.42339 -0.2417,-0.72459 -0.133,-0.30121 -0.354,-0.81938 -0.4912,-1.15148 -0.1373,-0.33211 -0.3186,-0.72965 -0.4029,-0.88344 -0.084,-0.15378 -0.1533,-0.38099 -0.1533,-0.50491 0,-0.12392 -0.1084,-0.43286 -0.2408,-0.68652 -0.1323,-0.25367 -0.2411,-0.58374 -0.2417,-0.7335 0,-0.14976 -0.073,-0.31706 -0.1621,-0.3718 -0.089,-0.0547 -0.1612,-0.34457 -0.1612,-0.64408 0,-0.29951 -0.068,-0.58676 -0.1518,-0.63834 -0.084,-0.0516 -0.2005,-0.41814 -0.26,-0.8146 -0.059,-0.39647 -0.1724,-0.72084 -0.251,-0.72084 -0.079,0 -0.1429,-0.33084 -0.1429,-0.73518 0,-0.40435 -0.068,-0.86144 -0.1502,-1.01576 -0.083,-0.15432 -0.2153,-0.76546 -0.2948,-1.3581 l -0.1445,-1.07751 0.4464,0 c 0.2456,0 0.4912,-0.0725 0.546,-0.16102 0.055,-0.0886 0.2222,-0.16147 0.3721,-0.16201 0.1499,-6.4e-4 0.4802,-0.10924 0.734,-0.24153 0.2539,-0.1323 0.6303,-0.24054 0.8365,-0.24054 0.2062,0 0.4198,-0.0725 0.4745,-0.16102 0.055,-0.0886 0.2222,-0.16147 0.3721,-0.16201 0.1499,-6.5e-4 0.4802,-0.10924 0.7341,-0.24154 0.2538,-0.13229 0.6303,-0.24053 0.8365,-0.24053 0.2062,0 0.4197,-0.0725 0.4745,-0.16103 0.055,-0.0886 0.2222,-0.16146 0.3721,-0.16201 0.1498,-6.4e-4 0.4802,-0.10924 0.734,-0.24153 0.2539,-0.1323 0.6303,-0.24054 0.8365,-0.24054 0.2062,0 0.4197,-0.0725 0.4745,-0.16102 0.055,-0.0886 0.2222,-0.16147 0.3721,-0.16201 0.1499,-6.5e-4 0.4802,-0.10924 0.7341,-0.24153 0.2538,-0.1323 0.6302,-0.24054 0.8364,-0.24054 0.2062,0 0.4198,-0.0725 0.4745,-0.16102 0.055,-0.0886 0.2223,-0.16147 0.3722,-0.16202 0.1498,-6.4e-4 0.4801,-0.10923 0.734,-0.24153 0.2539,-0.1323 0.6303,-0.24054 0.8365,-0.24054 0.2062,0 0.4197,-0.0725 0.4745,-0.16102 0.055,-0.0886 0.2222,-0.16147 0.3721,-0.16201 0.1499,-6.5e-4 0.4802,-0.10924 0.734,-0.24153 0.2539,-0.1323 0.4813,-0.24054 0.5055,-0.24054 0.062,0 0.2325,0.86239 0.4292,2.17378 0.093,0.61993 0.2297,1.27206 0.3038,1.44919 0.074,0.17712 0.1685,0.61188 0.2097,0.96612 0.086,0.74062 0.3989,1.96374 0.6069,2.37287 0.078,0.15379 0.1445,0.47985 0.1473,0.7246 0,0.24474 0.1116,0.58564 0.2417,0.75755 0.1302,0.17191 0.2366,0.47559 0.2366,0.67484 0,0.19925 0.073,0.40706 0.1612,0.46179 0.089,0.0547 0.1611,0.22072 0.1611,0.36886 0,0.31287 1.5815,3.55415 1.888,3.86944 0.1138,0.11703 0.2069,0.31629 0.2069,0.44281 0,0.12651 0.054,0.23052 0.1208,0.23113 0.066,6.4e-4 0.3001,0.27232 0.5191,0.60382 0.5986,0.90612 3.1882,3.41424 4.2799,4.14519 0.529,0.35425 0.9981,0.68032 1.0424,0.7246 0.4131,0.41275 4.2834,2.25429 4.7378,2.25429 0.1417,0 0.2577,0.0725 0.2577,0.16102 0,0.0886 0.2393,0.16102 0.5317,0.16102 0.2925,0 0.6007,0.0687 0.6849,0.15264 0.2643,0.26352 2.0145,0.53133 3.9399,0.60288 1.0192,0.0379 1.9221,0.13698 2.0062,0.22024 0.1979,0.19567 0.9463,0.19567 1.1442,0 0.084,-0.0833 0.9869,-0.18155 2.0062,-0.21841 1.8577,-0.0672 3.4923,-0.3305 3.7788,-0.6087 0.084,-0.0818 0.3881,-0.14865 0.6753,-0.14865 0.2873,0 0.562,-0.0643 0.6106,-0.14277 0.049,-0.0785 0.3429,-0.19049 0.6541,-0.24882 0.3112,-0.0583 0.5657,-0.17524 0.5657,-0.25979 0,-0.0845 0.1416,-0.15372 0.3147,-0.15372 0.3569,0 2.7991,-1.24124 2.8813,-1.46442 0.03,-0.0802 0.1754,-0.14579 0.324,-0.14579 0.1486,0 0.4537,-0.17008 0.6781,-0.37795 0.2243,-0.20787 0.4912,-0.40713 0.593,-0.4428 0.332,-0.11633 1.8656,-1.46759 3.3542,-2.95539 1.9469,-1.94579 3.0153,-3.44163 3.7434,-5.24103 0.4366,-1.07872 0.6805,-1.90314 0.6805,-2.29993 l 0,-0.43743 7.896,0 7.8959,0 0,0.87612 c 0,0.48186 -0.072,0.92089 -0.1611,0.97562 -0.089,0.0547 -0.1616,0.2945 -0.1621,0.53282 0,0.23832 -0.1094,0.64085 -0.2418,0.89452 -0.1323,0.25367 -0.2407,0.63506 -0.2407,0.84754 0,0.38625 -0.033,0.47756 -0.5367,1.48191 -0.148,0.295 -0.269,0.67113 -0.269,0.83585 0,0.16472 -0.067,0.34083 -0.1487,0.39135 -0.082,0.0505 -0.1964,0.30841 -0.2546,0.57308 -0.058,0.26467 -0.1725,0.48122 -0.2541,0.48122 -0.081,0 -0.1483,0.0843 -0.1483,0.18742 0,0.30048 -0.5329,1.42279 -0.6756,1.42279 -0.072,0 -0.1301,0.11267 -0.1301,0.25039 0,0.13771 -0.3626,0.79989 -0.8057,1.4715 -0.4432,0.6716 -0.8057,1.28352 -0.8057,1.35981 0,0.0763 -0.057,0.13871 -0.1264,0.13871 -0.07,0 -0.2635,0.2355 -0.4311,0.52332 -0.1675,0.28783 -0.3474,0.55955 -0.3997,0.60383 -0.052,0.0443 -0.4566,0.54072 -0.8985,1.1032 -0.8774,1.11721 -3.6994,4.00439 -4.6662,4.77407 -0.3336,0.26568 -0.7835,0.64012 -0.9996,0.83206 -0.2161,0.19193 -0.7876,0.62063 -1.27,0.95263 -0.4824,0.33199 -0.8771,0.66405 -0.8771,0.73789 0,0.0738 -0.081,0.13426 -0.1798,0.13426 -0.099,0 -0.5159,0.23548 -0.9266,0.52332 -0.9367,0.65645 -1.232,0.83805 -2.0359,1.25232 -0.3545,0.1827 -1.0796,0.57781 -1.6114,0.87808 -0.5318,0.30027 -1.0938,0.55063 -1.2488,0.55633 -0.1552,0.006 -0.282,0.0828 -0.282,0.17139 0,0.0886 -0.1399,0.16102 -0.3108,0.16102 -0.171,0 -0.4196,0.10869 -0.5525,0.24153 -0.133,0.13284 -0.4239,0.24153 -0.6466,0.24153 -0.2226,0 -0.4497,0.0725 -0.5044,0.16102 -0.055,0.0886 -0.2585,0.16331 -0.4527,0.16615 -0.1942,0.003 -0.4938,0.11149 -0.6658,0.24153 -0.1721,0.13 -0.476,0.23641 -0.6754,0.23641 -0.1994,0 -0.4074,0.0725 -0.4621,0.16102 -0.055,0.0886 -0.3402,0.16102 -0.6344,0.16102 -0.2941,0 -0.625,0.10869 -0.7354,0.24153 -0.1216,0.14647 -0.4745,0.24153 -0.8965,0.24153 -0.3827,0 -0.7407,0.0725 -0.7955,0.16102 -0.055,0.0886 -0.4239,0.16102 -0.8203,0.16102 -0.3965,0 -0.9812,0.10869 -1.2994,0.24153 -0.3658,0.15275 -1.1009,0.24154 -1.9995,0.24154 -0.7816,0 -1.466,0.0725 -1.5207,0.16102 -0.061,0.099 -1.3951,0.16102 -3.4646,0.16102 -2.0695,0 -3.4033,-0.062 -3.4646,-0.16102 z"
           style="opacity:1;fill:#230236;fill-opacity:1;stroke:none;stroke-width:2;stroke-linecap:round;stroke-linejoin:miter;stroke-miterlimit:4;stroke-dasharray:none;stroke-opacity:0.15" />
        <path
           id="path4589"
           d="m 3297.0217,470.80309 c -0.051,-0.0105 -0.1024,-0.0434 -0.1138,-0.073 -0.011,-0.0296 -0.089,-0.10102 -0.172,-0.15864 -0.1213,-0.084 -0.2175,-0.10986 -0.4851,-0.13048 -0.3277,-0.0252 -0.3348,-0.0281 -0.3872,-0.15343 -0.064,-0.15235 -0.1204,-0.20164 -0.2738,-0.23833 -0.1319,-0.0316 -0.9929,-0.87107 -0.9929,-0.96815 0,-0.0336 -0.073,-0.10682 -0.1611,-0.16273 -0.1157,-0.073 -0.1611,-0.12917 -0.1611,-0.19916 0,-0.15331 -0.06,-0.27176 -0.2204,-0.43619 -0.1441,-0.14762 -0.1498,-0.16488 -0.1867,-0.56357 -0.047,-0.51042 -0.092,-0.65239 -0.2411,-0.76249 l -0.1173,-0.0866 0,-0.55459 c 0,-0.50392 0.01,-0.55833 0.077,-0.59557 0.1396,-0.0747 0.2377,-0.36023 0.2831,-0.82426 0.024,-0.24185 0.043,-0.46376 0.043,-0.49313 0,-0.0294 0.033,-0.0534 0.073,-0.0534 0.1255,0 0.2411,-0.14917 0.2873,-0.37101 0.036,-0.17493 0.077,-0.24121 0.2258,-0.37337 0.1329,-0.11773 0.1878,-0.20002 0.205,-0.30784 0.02,-0.12432 0.043,-0.15097 0.1462,-0.17167 0.1678,-0.0335 0.2244,-0.089 0.2545,-0.24947 0.02,-0.10532 0.046,-0.13685 0.1125,-0.13685 0.1281,0 0.3898,-0.14893 0.5367,-0.30548 0.08,-0.0849 0.1671,-0.13732 0.229,-0.13732 0.1575,0 0.2741,-0.0594 0.4461,-0.22704 l 0.1594,-0.15539 1.2973,-0.0121 1.2974,-0.0121 0.1578,0.15927 c 0.1521,0.15343 0.3657,0.24667 0.5665,0.24716 0.052,1.2e-4 0.1491,0.0588 0.2216,0.1342 0.1674,0.17403 0.3046,0.25634 0.4832,0.28982 0.121,0.0227 0.1491,0.0478 0.1717,0.15389 0.037,0.17237 0.083,0.22096 0.2397,0.25025 0.1109,0.0208 0.1373,0.0469 0.1577,0.15592 0.015,0.0819 0.099,0.20553 0.2216,0.3299 0.1605,0.16206 0.2024,0.23425 0.2256,0.38935 0.028,0.18763 0.1586,0.34991 0.2813,0.34991 0.06,0 0.087,0.16271 0.1234,0.74472 0.032,0.51615 0.089,0.6905 0.2366,0.72761 0.1359,0.0341 0.1609,0.14519 0.1282,0.5701 -0.023,0.30019 -0.039,0.35178 -0.1267,0.421 -0.16,0.12577 -0.1872,0.21466 -0.2411,0.78744 l -0.051,0.54074 -0.1639,0.16727 c -0.1206,0.12305 -0.1712,0.21341 -0.1916,0.34173 -0.023,0.14557 -0.05,0.18493 -0.1608,0.23785 -0.079,0.0377 -0.153,0.11383 -0.1821,0.18785 -0.027,0.0684 -0.1232,0.19907 -0.2138,0.29028 -0.091,0.0912 -0.1878,0.19085 -0.2161,0.22141 -0.219,0.23666 -0.4545,0.42982 -0.5545,0.45478 -0.1478,0.0369 -0.2602,0.13451 -0.2602,0.22605 0,0.1112 -0.082,0.14729 -0.3907,0.17185 -0.325,0.0259 -0.4167,0.0627 -0.6085,0.24428 l -0.1331,0.126 -0.8942,0.006 c -0.4918,0.003 -0.9361,-0.003 -0.9873,-0.0132 z m 1.6456,-0.95965 c 0.072,-0.0371 0.1722,-0.1125 0.2234,-0.16763 0.073,-0.0788 0.1537,-0.10785 0.377,-0.13587 0.3288,-0.0412 0.5152,-0.12484 0.5639,-0.25281 0.043,-0.11373 0.1131,-0.16928 0.2556,-0.20332 0.071,-0.0169 0.1282,-0.0674 0.1554,-0.13638 0.08,-0.2026 0.1012,-0.22684 0.2283,-0.25976 0.154,-0.0399 0.1925,-0.10657 0.2566,-0.44386 0.046,-0.24024 0.06,-0.265 0.1798,-0.30827 0.1684,-0.0609 0.2029,-0.17612 0.2301,-0.76829 0.017,-0.37567 0.034,-0.47053 0.089,-0.50319 0.2072,-0.12332 0.2394,-0.17238 0.2325,-0.35449 -0.01,-0.20098 -0.1015,-0.41787 -0.2225,-0.51378 -0.068,-0.0535 -0.085,-0.13635 -0.112,-0.54344 -0.038,-0.56972 -0.069,-0.66273 -0.2597,-0.77496 -0.1002,-0.0591 -0.1442,-0.11383 -0.1442,-0.17934 0,-0.13319 -0.09,-0.2397 -0.2464,-0.29238 -0.105,-0.0353 -0.1403,-0.0739 -0.1613,-0.17653 -0.034,-0.16481 -0.075,-0.20616 -0.2406,-0.23998 -0.1,-0.0204 -0.1395,-0.0544 -0.1621,-0.13915 -0.047,-0.17392 -0.1051,-0.21975 -0.3435,-0.2692 -0.1215,-0.0252 -0.2303,-0.07 -0.2416,-0.0995 -0.011,-0.0295 -0.095,-0.10495 -0.1853,-0.1677 l -0.1647,-0.11409 -0.8835,-0.0141 c -1.1244,-0.0179 -1.1879,-0.008 -1.443,0.21806 -0.1148,0.10194 -0.2411,0.17843 -0.2944,0.17843 -0.1949,0 -0.3429,0.0835 -0.393,0.22169 -0.038,0.1043 -0.077,0.13968 -0.1785,0.15862 -0.1532,0.0287 -0.1998,0.078 -0.2366,0.24994 -0.02,0.0935 -0.056,0.13423 -0.1353,0.15419 -0.1603,0.0402 -0.2073,0.0943 -0.2356,0.27078 -0.021,0.12845 -0.051,0.17124 -0.1568,0.22177 -0.174,0.0829 -0.2155,0.18756 -0.2601,0.65479 -0.036,0.37391 -0.044,0.3986 -0.1798,0.53439 l -0.1425,0.14237 0,0.54747 c 0,0.49379 0.01,0.55536 0.081,0.62798 0.044,0.0443 0.1058,0.0805 0.1367,0.0805 0.08,0 0.105,0.0914 0.105,0.38701 0,0.30481 0.063,0.4737 0.2382,0.63838 0.08,0.0752 0.1508,0.20034 0.1906,0.33703 0.056,0.19315 0.081,0.22421 0.2193,0.27866 0.1266,0.0497 0.1609,0.0866 0.1812,0.19491 0.03,0.16124 0.069,0.19623 0.2794,0.25243 0.1221,0.0326 0.1729,0.0719 0.2059,0.15924 0.033,0.088 0.091,0.13193 0.2379,0.18207 0.1068,0.0363 0.2536,0.0661 0.3264,0.0661 0.1004,0 0.1699,0.038 0.2888,0.15805 0.1083,0.10927 0.2052,0.16602 0.3138,0.18384 0.087,0.0142 0.1844,0.0328 0.2176,0.0414 0.033,0.009 0.2898,0.009 0.57,3.2e-4 0.3741,-0.0112 0.5444,-0.0331 0.6401,-0.0826 l 0,0 z"
           style="opacity:1;fill:#230236;fill-opacity:1;stroke:none;stroke-width:2;stroke-linecap:round;stroke-linejoin:miter;stroke-miterlimit:4;stroke-dasharray:none;stroke-opacity:0.15" />
      </g>
    </g>
  </g>
</svg>
